<?xml version="1.0" encoding="UTF-8"?>
<svg id="Layer_2" data-name="Layer 2" xmlns="http://www.w3.org/2000/svg" viewBox="0 0 27.77 11.33">
  <defs>
    <style>
      .cls-1 {
        fill: #48d848;
      }

      .cls-2 {
        fill: #000600;
      }
    </style>
  </defs>
  <g id="Layer_1-2" data-name="Layer 1">
    <g>
      <polygon class="cls-1" points="2.52 2.52 2.52 1.26 25.24 1.26 25.24 2.52 26.51 2.52 26.51 8.81 25.25 8.81 25.25 10.07 2.53 10.07 2.53 8.81 1.26 8.81 1.26 2.52 2.52 2.52"/>
      <g>
        <rect class="cls-2" x="1.26" y="8.81" width="1.26" height="1.26"/>
        <rect class="cls-2" y="8.81" width="1.26" height="1.26"/>
        <rect class="cls-2" y="7.55" width="1.26" height="1.26"/>
        <rect class="cls-2" x="1.26" y="10.07" width="1.26" height="1.26"/>
        <rect class="cls-2" x="2.3" y="10.07" width="1.71" height="1.26"/>
        <rect class="cls-2" x="3.79" y="10.07" width="1.26" height="1.26"/>
        <rect class="cls-2" x="5.05" y="10.07" width="1.26" height="1.26"/>
        <rect class="cls-2" x="6.17" y="10.07" width="1.55" height="1.26"/>
        <rect class="cls-2" x="7.58" y="10.07" width="1.26" height="1.26"/>
        <rect class="cls-2" x="8.85" y="10.07" width="1.26" height="1.26"/>
        <rect class="cls-2" x="10.11" y="10.07" width="1.26" height="1.26"/>
        <rect class="cls-2" x="11.37" y="10.07" width="1.26" height="1.26"/>
        <rect class="cls-2" x="12.63" y="10.07" width="1.26" height="1.26"/>
        <rect class="cls-2" x="13.89" y="10.07" width="1.26" height="1.26"/>
        <rect class="cls-2" x="15.14" y="10.07" width="1.26" height="1.26"/>
        <rect class="cls-2" x="26.51" y="7.55" width="1.26" height="1.26"/>
        <rect class="cls-2" y="6.29" width="1.26" height="1.26"/>
        <rect class="cls-2" x="26.51" y="6.29" width="1.26" height="1.26"/>
        <rect class="cls-2" y="5.04" width="1.26" height="1.26"/>
        <rect class="cls-2" x="26.51" y="5.04" width="1.26" height="1.26"/>
        <rect class="cls-2" y="3.78" width="1.26" height="1.26"/>
        <rect class="cls-2" x="26.51" y="3.78" width="1.26" height="1.26"/>
        <rect class="cls-2" x="26.51" y="8.81" width="1.26" height="1.26"/>
        <rect class="cls-2" x="25.25" y="8.81" width="1.26" height="1.26"/>
        <rect class="cls-2" x="25.25" y="10.07" width="1.26" height="1.26"/>
        <rect class="cls-2" x="23.98" y="10.07" width="1.26" height="1.26"/>
        <rect class="cls-2" x="22.72" y="10.07" width="1.26" height="1.26"/>
        <rect class="cls-2" x="21.31" y="10.07" width="1.55" height="1.26"/>
        <rect class="cls-2" x="20.19" y="10.07" width="1.26" height="1.26"/>
        <rect class="cls-2" x="18.78" y="10.07" width="1.55" height="1.26"/>
        <rect class="cls-2" x="17.67" y="10.07" width="1.26" height="1.26"/>
        <rect class="cls-2" x="16.26" y="10.07" width="1.55" height="1.26"/>
        <g>
          <rect class="cls-2" y="2.52" width="1.26" height="1.26"/>
          <rect class="cls-2" y="1.26" width="1.26" height="1.26"/>
          <rect class="cls-2" x="1.26" y="1.26" width="1.26" height="1.26"/>
          <rect class="cls-2" x="1.26" width="1.26" height="1.26"/>
          <rect class="cls-2" x="2.38" width="1.55" height="1.26"/>
          <rect class="cls-2" x="3.79" width="1.26" height="1.26"/>
          <rect class="cls-2" x="5.05" width="1.26" height="1.26"/>
          <rect class="cls-2" x="6.17" width="1.55" height="1.26"/>
          <rect class="cls-2" x="7.58" width="1.26" height="1.26"/>
          <rect class="cls-2" x="8.85" width="1.26" height="1.26"/>
          <rect class="cls-2" x="10.11" width="1.26" height="1.26"/>
          <rect class="cls-2" x="11.37" y="0" width="1.26" height="1.26"/>
          <rect class="cls-2" x="12.63" y="0" width="1.26" height="1.26"/>
          <rect class="cls-2" x="13.89" width="1.26" height="1.26"/>
          <rect class="cls-2" x="15.14" width="1.26" height="1.26"/>
          <rect class="cls-2" x="25.25" y="1.26" width="1.26" height="1.26"/>
          <rect class="cls-2" x="26.51" y="1.26" width="1.26" height="1.26"/>
          <rect class="cls-2" x="26.51" y="2.52" width="1.26" height="1.26"/>
          <rect class="cls-2" x="25.25" width="1.26" height="1.26"/>
          <rect class="cls-2" x="23.98" width="1.26" height="1.26"/>
          <rect class="cls-2" x="22.57" width="1.55" height="1.26"/>
          <rect class="cls-2" x="21.46" width="1.26" height="1.26"/>
          <rect class="cls-2" x="19.89" width="1.86" height="1.26"/>
          <rect class="cls-2" x="18.78" width="1.55" height="1.26"/>
          <rect class="cls-2" x="17.67" width="1.26" height="1.26"/>
          <rect class="cls-2" x="16.26" width="1.55" height="1.26"/>
        </g>
      </g>
    </g>
  </g>
</svg>