<svg viewBox="0 0 42 51" xmlns="http://www.w3.org/2000/svg"><path d="m39.01 1.83h1.04v1.04h-1.04z"/><path d="m39.01 47.65h1.04v1.04h-1.04z"/><path d="m41 1v-1h-40v1.07h-1v48.94h.98v.99h40.02v-1h1v-49zm-4 4v41h-32v-41z"/><path d="m1 1v49h40v-49zm37 46h-34v-43h34z" fill="#ac8c7f"/><path d="m2.01 1.83h1.04v1.04h-1.04z"/><path d="m2.01 47.65h1.04v1.04h-1.04z"/><path d="m4 4h5.91v5.91h-5.91z"/><path d="m3.78 3.78h3.67v3.67h-3.67z" fill="#ac8c7f"/><path d="m4 42.05h5.91v4.47h-5.91z"/><path d="m3.78 43.34h3.67v3.67h-3.67z" fill="#ac8c7f"/><path d="m38.01 1.83h1.04v1.04h-1.04z"/><path d="m38.01 47.65h1.04v1.04h-1.04z"/><path d="m31.95 4h5.91v5.91h-5.91z" transform="matrix(-1 0 -0 -1 69.81 13.91)"/><path d="m34.41 3.78h3.67v3.67h-3.67z" fill="#ac8c7f" transform="matrix(-1 0 -0 -1 72.49 11.23)"/><path d="m32.98 42.15h4.81v4.81h-4.81z" transform="matrix(-1 0 -0 -1 70.78 89.11)"/><path d="m34.34 43.34h3.67v3.67h-3.67z" fill="#ac8c7f" transform="matrix(-1 0 -0 -1 72.36 90.36)"/></svg>