<?xml version="1.0" encoding="UTF-8"?>
<svg id="Layer_2" data-name="Layer 2" xmlns="http://www.w3.org/2000/svg" viewBox="0 0 27.77 11.33">
  <defs>
    <style>
      .cls-1 {
        fill: #000600;
      }

      .cls-2 {
        fill: #5ad0ff;
      }
    </style>
  </defs>
  <g id="Layer_1-2" data-name="Layer 1">
    <g>
      <g>
        <rect class="cls-1" x="1.26" y="8.81" width="1.26" height="1.26"/>
        <rect class="cls-1" y="8.81" width="1.26" height="1.26"/>
        <rect class="cls-1" y="7.55" width="1.26" height="1.26"/>
        <rect class="cls-1" x="1.26" y="10.07" width="1.26" height="1.26"/>
        <rect class="cls-1" x="2.38" y="10.07" width="1.55" height="1.26"/>
        <rect class="cls-1" x="3.64" y="10.07" width="1.55" height="1.26"/>
        <rect class="cls-1" x="4.91" y="10.07" width="1.55" height="1.26"/>
        <rect class="cls-1" x="6.32" y="10.07" width="1.26" height="1.26"/>
        <rect class="cls-1" x="7.58" y="10.07" width="1.26" height="1.26"/>
        <rect class="cls-1" x="8.85" y="10.07" width="1.26" height="1.26"/>
        <rect class="cls-1" x="10.11" y="10.07" width="1.26" height="1.26"/>
        <rect class="cls-1" x="11.37" y="10.07" width="1.26" height="1.26"/>
        <rect class="cls-1" x="12.63" y="10.07" width="1.26" height="1.26"/>
        <rect class="cls-1" x="13.89" y="10.07" width="1.26" height="1.26"/>
        <rect class="cls-1" x="15.14" y="10.07" width="1.26" height="1.26"/>
        <rect class="cls-1" x="26.51" y="7.55" width="1.26" height="1.26"/>
        <rect class="cls-1" y="6.29" width="1.26" height="1.26"/>
        <rect class="cls-1" x="26.51" y="6.29" width="1.26" height="1.26"/>
        <rect class="cls-1" y="5.04" width="1.26" height="1.26"/>
        <rect class="cls-1" x="26.51" y="5.04" width="1.26" height="1.26"/>
        <rect class="cls-1" y="3.78" width="1.26" height="1.26"/>
        <rect class="cls-1" x="26.51" y="3.78" width="1.26" height="1.26"/>
        <rect class="cls-1" x="26.51" y="8.81" width="1.26" height="1.26"/>
        <rect class="cls-1" x="25.25" y="8.81" width="1.26" height="1.26"/>
        <rect class="cls-1" x="25.25" y="10.07" width="1.26" height="1.26"/>
        <rect class="cls-1" x="23.98" y="10.07" width="1.26" height="1.26"/>
        <rect class="cls-1" x="22.72" y="10.07" width="1.26" height="1.26"/>
        <rect class="cls-1" x="21.31" y="10.07" width="1.55" height="1.26"/>
        <rect class="cls-1" x="20.19" y="10.07" width="1.26" height="1.26"/>
        <rect class="cls-1" x="18.78" y="10.07" width="1.55" height="1.26"/>
        <rect class="cls-1" x="17.67" y="10.07" width="1.26" height="1.26"/>
        <rect class="cls-1" x="16.4" y="10.07" width="1.26" height="1.26"/>
        <g>
          <rect class="cls-1" y="2.52" width="1.26" height="1.26"/>
          <rect class="cls-1" y="1.26" width="1.26" height="1.26"/>
          <rect class="cls-1" x=".98" y="1.26" width="1.54" height="1.26"/>
          <rect class="cls-1" x="1.26" width="1.26" height="1.26"/>
          <rect class="cls-1" x="2.3" width="1.71" height="1.26"/>
          <rect class="cls-1" x="3.64" width="1.55" height="1.26"/>
          <rect class="cls-1" x="5.05" width="1.26" height="1.26"/>
          <rect class="cls-1" x="6.26" width="1.37" height="1.26"/>
          <rect class="cls-1" x="7.58" width="1.26" height="1.26"/>
          <rect class="cls-1" x="8.78" width="1.39" height="1.26"/>
          <rect class="cls-1" x="10.11" width="1.26" height="1.26"/>
          <rect class="cls-1" x="11.37" width="1.26" height="1.26"/>
          <rect class="cls-1" x="12.63" width="1.26" height="1.26"/>
          <rect class="cls-1" x="13.89" width="1.26" height="1.26"/>
          <rect class="cls-1" x="15.14" width="1.26" height="1.26"/>
          <rect class="cls-1" x="25.25" y="1.26" width="1.26" height="1.26"/>
          <rect class="cls-1" x="26.51" y="1.26" width="1.26" height="1.26"/>
          <rect class="cls-1" x="26.51" y="2.52" width="1.26" height="1.26"/>
          <rect class="cls-1" x="25.25" width="1.26" height="1.26"/>
          <rect class="cls-1" x="23.98" width="1.26" height="1.26"/>
          <g>
            <rect class="cls-1" x="22.72" width="1.26" height="1.26"/>
            <rect class="cls-1" x="21.23" width="1.71" height="1.26"/>
          </g>
          <rect class="cls-1" x="20.19" y="0" width="1.26" height="1.26"/>
          <rect class="cls-1" x="18.93" width="1.26" height="1.26"/>
          <rect class="cls-1" x="17.44" width="1.71" height="1.26"/>
          <rect class="cls-1" x="16.4" width="1.26" height="1.26"/>
        </g>
      </g>
      <polygon class="cls-2" points="2.52 2.52 2.52 1.26 25.24 1.26 25.24 2.52 26.51 2.52 26.51 8.81 25.25 8.81 25.25 10.07 2.53 10.07 2.53 8.81 1.26 8.81 1.26 2.52 2.52 2.52"/>
    </g>
  </g>
</svg>