<?xml version="1.0" encoding="UTF-8"?>
<svg id="Layer_2" data-name="Layer 2" xmlns="http://www.w3.org/2000/svg" viewBox="0 0 995.95 1350">
  <defs>
    <style>
      .cls-1 {
        fill: #a96654;
      }

      .cls-2 {
        fill: #804041;
      }

      .cls-3, .cls-4 {
        fill: #e25924;
      }

      .cls-5 {
        fill: #f6afa1;
      }

      .cls-6 {
        fill: #806438;
      }

      .cls-7 {
        fill: #fff;
      }

      .cls-4 {
        font-family: Poppins-Bold, Poppins;
        font-size: 105.42px;
        font-weight: 700;
      }

      .cls-8 {
        fill: #a23943;
      }
    </style>
  </defs>
  <g id="Capa_1" data-name="Capa 1">
    <g>
      <rect class="cls-7" x="0" width="995.95" height="1350"/>
      <g>
        <path class="cls-5" d="M751.35,791.4c-.1-4.35-.34-8.63-.71-12.73-2.05-22.51-8.19-45.4-18.24-68.02-25.43-57.22-69.91-105.24-128.64-138.88l-.39-.23-.44.11c-10.31,2.44-20.76,3-31.63,1.49l-6.57-.91,5.88,3.07c29.61,15.44,55.15,36.05,75.89,61.24,1.69,2.06,1.28,4.14.89,5.2-.71,1.89-2.35,3.35-4.08,3.64-1.39.23-2.67-.33-3.73-1.61-48.23-58.58-122.18-90.88-197.79-86.4-1.77.09-3.07-.51-3.9-1.76-1-1.52-1.08-3.75-.19-5.52.48-.95,1.66-2.56,4.22-2.71,29.75-1.76,59.53,2.02,88.55,11.24l6.33,2.01-5.29-4.02c-7.73-5.87-14.35-12.96-19.7-21.06l-.25-.38-.44-.11c-22.98-5.54-46.31-8.76-69.34-9.55-17.25-.59-34.68.21-51.83,2.39-5.65-6.15-11.3-12.49-16.77-18.62-3.17-3.55-6.33-7.1-9.51-10.63-9.32-10.35-18.73-19.91-31.31-23.13-3.9-1-7.14-1.03-9.92-.1-5.65,1.9-9.43,7.52-11.55,17.19-3.65,16.61-4.02,33.8-4.38,50.43l-.17,7.87c-1.69.75-3.37,1.51-5.04,2.29-38.51,17.98-70.35,43.39-94.62,75.53l-.85,1.13c-3.03,4.03-6.02,8.11-9.01,12.2-9.11,12.43-18.53,25.28-29.09,36.69l-2.16,2.33,3.15-.41c12.58-1.63,26.56,3.22,37.42,13,9.99,8.99,17.89,20.69,23.48,34.78,17.33,43.69,9.22,105.31-18.45,140.28-9.11,11.51-19.93,19.16-32.17,22.76l-2.52.74,2.25,1.35c4.86,2.91,10.49,6.29,15.88,9.68,12.22,7.7,23.46,14.57,34.36,21.01,23.92,14.15,45.69,25.84,66.53,35.74-.59,6.95-1,13.82-1.37,19.91-.43,7.3-.81,13.6-1.39,18.72-.83,7.28-1.77,15.54-1.24,23.61.16,2.49.43,4.7.8,6.74,2.11,11.47,8.11,20.68,16.44,25.25,12.39,6.8,27.61,2.44,37.72-3.91,15.48-9.72,27.47-26.15,37.72-51.69.72-1.79,1.41-3.6,2.07-5.43,26.43,6.32,53.86,10.05,81.55,11.09,26.15.98,51.86-.48,76.46-4.35.34,2.85.69,5.67,1.03,8.43,1.13,9.18,2.2,17.86,2.7,25.37.22,3.31.5,7.15,1.08,10.95,1.21,7.96,3.51,13.74,7.24,18.2,5.32,6.35,14,10.22,24.44,10.87,1.11.07,2.22.1,3.34.1,15.75,0,31.9-6.92,44.79-19.29,11.45-10.99,20.42-26.17,26.67-45.11,6.21-18.82,8.33-36.84,6.32-53.59,32.55-22.03,57.12-50.73,73.01-85.31,11.55-25.13,17.09-51.76,16.47-79.17Z"/>
        <g>
          <path class="cls-2" d="M948.09,664.38s-.1,0-.14,0c-3.03.06-6.25,2.03-6.17,6.23.29,14.88-6.13,29.01-17.63,38.76-11.15,9.45-25.85,13.65-39.39,11.26,4.29-8.88,6.82-18.41,7.54-28.35.93-12.92-2.37-37.89-15.14-49.9-5.53-5.19-12.17-7.31-19.73-6.3-8.41,1.13-14.89,5.51-19.25,13.01-7.7,13.25-6.61,33.39-1.67,45.61,5.48,13.54,15.53,25,28.33,32.29-14.29,17.07-35.33,25.05-55.06,20.89,12.83-24.52,13.75-53.38,2.33-73.61-6.15-10.89-16.24-17.34-27.07-17.34-.16,0-.32,0-.49,0-10.35.18-19.42,6.35-24.9,16.92-12.27,23.67-1.85,52.63,14.79,69,4.46,4.39,9.57,8.1,15.19,11.02-10.73,12.03-25,20.77-40.21,24.61-.14.03-.23.16-.22.3.37,4.07.61,8.32.71,12.63,0,.09.04.16.11.22.05.04.11.06.18.06.02,0,.04,0,.06,0,21.32-4.3,39.98-15.92,52.55-32.73,14.34,3.85,30.01,2.86,44.15-2.78,12.16-4.86,22.75-13.06,30.65-23.73,8.55,2.55,17.2,3.04,25.71,1.45,29.37-5.48,51.91-33.29,51.33-63.32-.08-4.1-3.34-6.22-6.56-6.22ZM797.4,743.55c-.81-.39-1.63-.8-2.44-1.24-16.46-9.09-27.61-27.26-27.75-45.22-.03-4.27.64-18.72,10.73-25.41,3.61-2.39,7.28-3.06,10.91-2,5.36,1.58,10.52,6.99,13.8,14.48,8.5,19.41,6.64,40.5-5.25,59.39ZM879.52,690.49c-.47,8.94-2.96,17.62-7.4,25.8-3.65-1.9-7.06-4.27-10.13-7.07-14.19-12.88-22.9-36.01-12.93-52.41,2.89-4.75,6.79-7.36,10.99-7.36.04,0,.08,0,.12,0,4.81.06,9.66,3.52,12.97,9.28,6.41,11.13,6.75,24.68,6.37,31.76Z"/>
          <path class="cls-2" d="M230.14,922.27l-1.41-.83-.3,1.61c-2.82,15.01-3.81,31.63-4.61,44.98-.43,7.29-.81,13.58-1.39,18.69-1.13,9.94-2.3,20.21-.44,30.35,2.11,11.47,8.11,20.67,16.44,25.25,4.42,2.43,9.2,3.43,13.98,3.43,8.61,0,17.23-3.26,23.73-7.35,6.26-3.93,12.1-9.15,17.37-15.52l.29-.35-.03-.46c-.52-7.87.41-16.02,1.23-23.2.59-5.18.97-11.51,1.4-18.84.37-6.31.8-13.46,1.43-20.65l.07-.8-.72-.34c-20.99-9.94-42.93-21.71-67.06-35.99Z"/>
          <path class="cls-2" d="M342.02,619.56c1.55,1.03,3.25,1.55,5.07,1.55.81,0,1.65-.1,2.51-.31,6.76-1.62,9.05-8.04,11.07-13.71,1.12-3.15,2.18-6.13,3.87-8.32,6.23-8.09,13.78-4.36,21.78-.4l1.09.54c4.44,2.18,12.82,4.11,17.68.46,1.63-1.22,2.67-2.94,3.1-5.12,2.3-11.59-9.5-24.87-17.31-33.65-1.22-1.37-2.35-2.65-3.33-3.8-9-10.6-18.89-20.56-29.4-29.61-4.71-4.06-11.7-9.27-17.92-7.69-7.59,1.92-8.18,10.57-8.6,16.88-.04.63-.09,1.23-.13,1.81-1.77,21.79-.92,43.67,2.53,65.05.6,3.71,2.57,12.72,7.99,16.33Z"/>
          <path class="cls-2" d="M231.76,727.58h0c-5.72-14.43-13.83-26.42-24.09-35.64-11.36-10.22-26.03-15.28-39.25-13.57l-.3.03c-.17.02-.34.03-.5.06-4.52.68-8.83,1.97-12.99,3.21-6.81,2.03-13.24,3.94-20.45,3.43-2.79-.2-5.38-.54-7.9-.87-8.81-1.16-16.41-2.16-26.03,3.68-8.79,5.33-16.13,14.31-21.24,25.96-13.26,30.28-17.27,68.71-10.46,100.31,5.77,26.78,26.24,54.03,52.13,69.42,13.87,8.24,28.24,12.47,41.83,12.47,5.9,0,11.64-.8,17.13-2.41,12.71-3.73,23.92-11.65,33.32-23.54,28.14-35.55,36.39-98.17,18.79-142.55Z"/>
          <path class="cls-2" d="M312,603.77c-.24-3.62-.33-7.31-.42-10.88-.08-3.3-.16-6.7-.37-10.06-.08-1.35-1.27-2.21-2.38-2.27-1.16-.06-2.08.7-2.26,1.83-.99,6.19-3.69,27.58,3.31,43.11.31.68.93,1.08,1.63,1.08.12,0,.23,0,.35-.03.92-.17,1.63-.94,1.69-1.85.28-4.59-.27-9.23-.81-13.72-.28-2.37-.58-4.83-.74-7.21Z"/>
          <path class="cls-2" d="M302.03,553.11c-1.36-.29-2.66-.59-3.86-.91-22.91-6.21-45.23-15.5-66.81-24.48-4.49-1.87-8.98-3.73-13.47-5.58-12.89-5.28-25.52-9.81-38.25-7.25-3.95.79-6.89,2.17-8.98,4.22-4.27,4.16-5.23,10.86-2.95,20.5,3.91,16.53,11.04,32.19,17.94,47.33l20.88,45.83,2.01-2.67c24.04-31.83,55.59-57.01,93.76-74.83l3.11-1.45-3.36-.71Z"/>
          <path class="cls-2" d="M378.84,960.74c-15.54-11.9-33.76-19.15-54.17-21.57-4.36-.52-6.71,2.44-7.08,5.61-.47,3.96,1.95,8.39,6.81,8.97,16.84,1.99,32.6,8.53,46.84,19.43,1.26.96,2.61,1.45,3.95,1.45.73,0,1.45-.14,2.15-.44,2.33-.97,4.09-3.44,4.46-6.28.37-2.83-.71-5.45-2.96-7.17Z"/>
          <path class="cls-2" d="M550.29,1033.59c-.5-7.58-1.57-16.28-2.71-25.5-.39-3.14-.78-6.35-1.17-9.6l-.14-1.19-1.18.19c-24.81,3.99-50.78,5.5-77.19,4.51l-1.35-.05.16,1.34c.97,7.88,1.87,15.53,2.32,22.36.58,8.8,1.37,20.86,8.32,29.15,7.18,8.57,18.4,10.49,24.44,10.87,1.11.07,2.22.1,3.34.1,15.75,0,31.9-6.92,44.78-19.29.23-.22.44-.45.65-.68l.86-.88-.09-.57c-.57-3.71-.84-7.5-1.05-10.76Z"/>
          <path class="cls-2" d="M625.59,936.44c-25.96,1.79-49.35,10.46-69.51,25.76-3.91,2.97-3.75,8.03-1.33,11.21,1.18,1.56,2.97,2.68,4.99,2.68,1.25,0,2.59-.43,3.93-1.45,18.6-14.11,39.49-22.06,62.08-23.62,2.73-.19,4.97-1.68,6.15-4.08,1.22-2.51,1.07-5.64-.38-7.8-1.29-1.91-3.41-2.87-5.93-2.7Z"/>
          <path class="cls-2" d="M398.41,535.77c-.7-.75-1.82-.82-2.66-.17-.83.64-1.03,1.74-.48,2.6,2.78,4.34,5.74,8.65,8.6,12.82,3.23,4.7,6.56,9.57,9.65,14.47,2.18,3.46,4.23,7.17,6.21,10.76,3.29,5.95,6.69,12.11,10.84,17.5.36.47.91.72,1.46.72.28,0,.55-.06.81-.19.74-.37,1.09-1.18.86-2.01-6.66-24.06-26.91-47.53-35.3-56.5Z"/>
          <path class="cls-2" d="M430.22,610.64c-15.46,11.66-29.21,20.35-46.06,24.89-16.52,4.45-32.98,4.42-55.04-.11-1.93-.39-3.32.81-3.72,2.2-.4,1.41.18,3.18,2.03,3.86,9.55,3.46,19.94,5.09,30.47,5.09,28.75,0,58.53-12.19,75.04-32.81.68-.85.6-2.15-.19-2.96-.7-.72-1.73-.79-2.55-.17Z"/>
        </g>
        <g>
          <path class="cls-1" d="M176.06,732.61c-3.55-8.5-8.52-13.05-14.24-12.92-5.25.16-9.22,4.52-10.83,8.78-1.69,4.48-1.53,9.39-1.39,13.72.16,5.05.36,10.1.56,15.16.64,16.13,1.29,32.82.66,49.13-.24,6.3-.08,13.57,3.04,19.75,4.04,8,8.49,9.89,11.79,9.89.32,0,.63-.02.92-.05,7.21-.76,13.47-10.23,15.69-18.75,2.79-10.66,3.9-23.13,3.38-38.12-.59-17.1-3.82-32.77-9.59-46.59Z"/>
          <path class="cls-1" d="M122.89,732.61c-2.44-5.83-7.91-12.1-13.64-12.79-2.37-.29-5.92.29-9.16,4.67-3.79,5.14-3.63,12.16-3.51,17.29l.2,8.41c.42,17.53.85,35.66.62,53.51-.31,24.49,6.72,31.25,12.68,32.61.78.18,1.53.26,2.26.26,10.32,0,15.15-16.94,16.07-20.54,3.04-12.02,4.49-25.1,4.09-36.82-.59-17.09-3.82-32.77-9.59-46.6Z"/>
          <path class="cls-1" d="M648.27,635.08c-20.94-25.43-46.71-46.23-76.6-61.82l-.37-.12c-14.42-2-28.17-7.72-39.77-16.54l-.35-.18c-29.29-9.3-59.37-13.12-89.38-11.34-2.72.16-4.95,1.61-6.14,3.98-1.25,2.49-1.12,5.63.33,7.82,1.29,1.95,3.42,2.93,5.95,2.79,74.91-4.44,148.12,27.55,195.88,85.57,1.34,1.63,3.05,2.5,4.88,2.5.33,0,.66-.03.99-.08,2.55-.43,4.85-2.43,5.85-5.1.97-2.59.51-5.31-1.26-7.47Z"/>
          <path class="cls-1" d="M289.68,678.02c-6.92-.11-13.16,3.93-17.28,11.42-5.29,9.62-5.65,22.39-.84,29.69,3.61,5.48,9.78,8.84,16.03,8.84.48,0,.96-.02,1.44-.06,8.94-.75,14.46-8.35,16.63-15.22.76-2.39,1.27-5.14,1.49-7.95.68-8.8-1.48-16.87-5.78-21.61-3-3.3-6.93-5.02-11.68-5.11Z"/>
        </g>
        <g>
          <path class="cls-6" d="M694.22,730.98c-2.03-9.05-5.23-20.65-12.11-30.08-5.25-7.18-11.5-10.87-17.16-10.12-3.42.45-8.17,2.76-11.42,11.21-3.42,8.9-6.17,18.23-8.82,27.26-4.66,15.85-9.48,32.23-18.08,46.5-17.14,28.45-47.1,45.59-76.08,62.17-25.63,14.67-52.14,29.84-70.46,52.91-8.76,11.03-13.64,21.87-14.5,32.22-1.09,13.08,4.28,24.05,14.73,30.12,5.02,2.91,10.72,4.35,16.51,4.35,7.16,0,14.46-2.2,20.78-6.54,6.95-4.77,13.24-9.69,19.33-14.45,16.94-13.23,32.93-25.73,57.79-30.35,5.38-1,10.98-1.68,16.39-2.35,13.59-1.66,27.65-3.38,39.75-10.21,51.95-29.32,54.39-113.33,43.36-162.65Z"/>
          <path class="cls-6" d="M635.31,965.28c-4-2.28-8.93-2.41-13.18-.33-3.98,1.94-6.6,5.44-7.2,9.59-.47,3.28-.78,6.45-1.07,9.51-.76,7.87-1.48,15.3-4.87,23.29-3.1,7.31-7.1,14.38-10.96,21.21-1.8,3.18-3.6,6.37-5.33,9.59-1.94,3.63-4.22,8.94-1.53,13.11,1.86,2.89,4.95,3.72,7.89,3.72s5.7-.82,6.97-1.26c13.86-4.78,25.99-14.81,33.3-27.52,7.3-12.71,9.85-28.25,7-42.63-1.76-8.86-5.57-15.18-11.02-18.29Z"/>
          <path class="cls-6" d="M356.34,973.93c-3.24-1.8-6.07-2.18-8.41-1.14-4.5,2.01-6.01,8.65-7.23,13.98-.3,1.3-.57,2.51-.87,3.53-3.14,10.78-8.02,20.83-14.51,29.87l-.99,1.37c-1.88,2.58-3.83,5.24-5.02,8.32-1.66,4.31-1.36,8.7.81,11.75,2.19,3.08,5.74,4.32,9.59,4.32,3.1,0,6.4-.8,9.33-2.1,10.91-4.82,19.8-13.9,24.39-24.91,4.59-11.01,4.78-23.72.53-34.86-1.92-5.03-4.41-8.34-7.62-10.12Z"/>
        </g>
        <g>
          <path class="cls-8" d="M583.15,400.87c-48.36,0-87.7,39.34-87.7,87.7,0,17.21,5,33.89,14.46,48.23,5.49,8.32,12.29,15.59,20.22,21.62,11.92,9.06,26.04,14.93,40.85,16.99,4.1.57,8.2.86,12.16.86,6.79,0,13.63-.8,20.31-2.39,39.68-9.41,67.39-44.49,67.39-85.31,0-48.36-39.34-87.7-87.7-87.7Z"/>
          <path class="cls-8" d="M515.66,338.31c-6.74-22.34-21.77-40.72-42.34-51.76-20.56-11.03-44.19-13.4-66.53-6.66-22.34,6.74-40.72,21.77-51.76,42.34-11.03,20.56-13.4,44.19-6.66,66.53,6.74,22.34,21.77,40.72,42.34,51.76,12.88,6.91,26.97,10.42,41.19,10.42,8.48,0,17-1.25,25.34-3.76,22.34-6.74,40.72-21.77,51.76-42.34,11.03-20.56,13.4-44.19,6.66-66.54Z"/>
        </g>
        <g>
          <path class="cls-3" d="M583.15,410.27c-43.25,0-78.3,35.05-78.3,78.3,0,43.25,35.06,78.3,78.3,78.3,43.25,0,78.3-35.06,78.3-78.3,0-43.25-35.05-78.3-78.3-78.3ZM633.88,539.3c-12.99,12.99-30.91,21.01-50.73,21.01-19.82,0-37.74-8.03-50.73-21.01-12.99-12.99-21.01-30.91-21.01-50.73s8.02-37.74,21.01-50.73c12.99-12.99,30.91-21.01,50.73-21.01,19.82,0,37.74,8.03,50.73,21.01,12.99,12.99,21.01,30.91,21.01,50.73s-8.02,37.74-21.01,50.73Z"/>
          <path class="cls-3" d="M506.69,341.01c-10.18-33.73-41.14-55.5-74.65-55.5-7.46,0-15.05,1.08-22.55,3.34-33.73,10.18-55.5,41.14-55.5,74.65,0,7.46,1.08,15.05,3.34,22.55,10.18,33.73,41.13,55.5,74.65,55.5,7.46,0,15.05-1.08,22.55-3.34,33.73-10.18,55.5-41.13,55.5-74.65,0-7.46-1.08-15.05-3.34-22.55ZM452.65,431.96c-6.89,2.08-13.84,3.06-20.67,3.06-30.69,0-59.08-19.94-68.39-50.85-2.08-6.89-3.06-13.83-3.06-20.66,0-30.69,19.94-59.08,50.85-68.4,6.89-2.08,13.83-3.06,20.66-3.06,30.69,0,59.08,19.94,68.4,50.85,2.08,6.89,3.06,13.83,3.06,20.66,0,30.69-19.94,59.08-50.85,68.4Z"/>
          <text class="cls-4" transform="translate(416.78 408.79) rotate(-26.34)"><tspan x="0" y="0">S</tspan></text>
          <text class="cls-4" transform="translate(574.31 532.51) rotate(-26.34)"><tspan x="0" y="0">S</tspan></text>
        </g>
      </g>
    </g>
  </g>
</svg>