<?xml version="1.0" encoding="UTF-8"?>
<svg id="Layer_2" data-name="Layer 2" xmlns="http://www.w3.org/2000/svg" viewBox="0 0 24 20.57">
  <defs>
    <style>
      .cls-1 {
        fill: #ff99c3;
      }
    </style>
  </defs>
  <g id="Layer_1-2" data-name="Layer 1">
    <g>
      <path class="cls-1" d="M22.86,9.14h1.14v4.57h-1.14v-4.57Z"/>
      <path class="cls-1" d="M22.86,1.14h1.14v4.58h-1.14V1.14Z"/>
      <path class="cls-1" d="M21.71,13.71h1.15v2.29h-1.15v-2.29Z"/>
      <path class="cls-1" d="M21.71,5.72h1.15v3.43h-1.15v-3.43Z"/>
      <path class="cls-1" d="M20.57,16h1.14v1.14h-1.14v-1.14Z"/>
      <path class="cls-1" d="M20.57,4.57h1.14v1.15h-1.14v-1.15Z"/>
      <path class="cls-1" d="M19.43,17.14h1.14v1.15h-1.14v-1.15Z"/>
      <path class="cls-1" d="M19.43,3.43h1.14v1.14h-1.14v-1.14Z"/>
      <path class="cls-1" d="M17.15,0h5.72v1.14h-5.72V0Z"/>
      <path class="cls-1" d="M16,18.29h3.43v1.14h-3.43v-1.14Z"/>
      <path class="cls-1" d="M16,1.14h1.14v1.14h-1.14v-1.14Z"/>
      <path class="cls-1" d="M16,10.29h-8v1.14h-1.14v3.44h1.14v1.14h8v-1.14h1.14v-3.43h-1.14v-1.14ZM11.43,14.86h-2.29v-2.29h2.29v2.29ZM14.86,14.86h-2.29v-2.29h2.29v2.29Z"/>
      <path class="cls-1" d="M8,19.43h8v1.15h-8v-1.15Z"/>
      <path class="cls-1" d="M13.72,7.99h1.14v1.15h-1.14v-1.15Z"/>
      <path class="cls-1" d="M9.14,7.99h1.15v1.15h-1.15v-1.15Z"/>
      <path class="cls-1" d="M8,0h8v1.14h-8V0Z"/>
      <path class="cls-1" d="M4.57,18.29h3.43v1.14h-3.43v-1.14Z"/>
      <path class="cls-1" d="M6.86,1.14h1.14v1.14h-1.14v-1.14Z"/>
      <path class="cls-1" d="M3.43,17.14h1.15v1.15h-1.15v-1.15Z"/>
      <path class="cls-1" d="M3.43,3.43h1.15v1.14h-1.15v-1.14Z"/>
      <path class="cls-1" d="M2.29,16h1.14v1.14h-1.14v-1.14Z"/>
      <path class="cls-1" d="M2.29,4.57h1.14v1.15h-1.14v-1.15Z"/>
      <path class="cls-1" d="M1.15,0h5.72v1.14H1.15V0Z"/>
      <path class="cls-1" d="M1.15,13.71h1.14v2.29h-1.14v-2.29Z"/>
      <path class="cls-1" d="M1.15,5.72h1.14v3.43h-1.14v-3.43Z"/>
      <path class="cls-1" d="M0,9.14h1.15v4.57H0v-4.57Z"/>
      <path class="cls-1" d="M0,1.14h1.15v4.58H0V1.14Z"/>
    </g>
  </g>
</svg>