<?xml version="1.0" encoding="UTF-8"?>
<svg id="Layer_2" data-name="Layer 2" xmlns="http://www.w3.org/2000/svg" viewBox="0 0 468 468">
  <defs>
    <style>
      .cls-1 {
        fill: #986162;
      }

      .cls-2 {
        fill: #fcf0c7;
      }

      .cls-3 {
        fill: #191414;
      }

      .cls-4 {
        fill: #fccb06;
      }

      .cls-5 {
        fill: #fbc9c8;
      }

      .cls-6 {
        fill: #232221;
      }

      .cls-7 {
        fill: #623738;
      }

      .cls-8 {
        fill: #fd7576;
      }

      .cls-9 {
        fill: #d95c5c;
      }

      .cls-10 {
        fill: #fd8c8b;
      }

      .cls-11 {
        fill: #8f8384;
      }

      .cls-12 {
        fill: #282527;
      }

      .cls-13 {
        fill: #fefefe;
      }

      .cls-14 {
        fill: #e85b5c;
      }

      .cls-15 {
        fill: #fc8d05;
      }

      .cls-16 {
        fill: #aa9740;
      }
    </style>
  </defs>
  <g id="Layer_1-2" data-name="Layer 1">
    <g>
      <rect class="cls-13" width="468" height="468"/>
      <g>
        <path class="cls-13" d="M464.06,7v448H33.94V7h430.13ZM213.85,40.36c-.2,0-.4,0-.6,0-4.16-.12-8.36.09-12.51,0-.03.59.03,1.19,0,1.79,0,.2,0,.4,0,.6,0,.4.01.79,0,1.19-.1,3.56.07,7.16,0,10.72-.2,0-.4,0-.6,0-3.53.05-8.91-.6-11.91.6-.3.12-1.07-.36-1.22.37-.15,12.97.29,25.98.03,38.95,0,.07-.67.43-.57.83.49,1.91,10.9.56,13.09.96.46.46-.49,10.33-.01,12.12.18.66,1.13.32,1.2.39.08.08-.17.81.11,1.05.39.34,6.68.19,7.96.14,1.15-.04,2.39.61,2.06-1.19h1.19c-.42,1.2,1.07,1.1,1.18,1.6.52,2.36-1.05,11.95.99,12.61l40.72.08c.26-.74-.58-1.12-.59-1.19-.13-.88.02-2.03,0-2.98.55-.06,1.04.32,1.2-.38.14-.57.17-5.93-.01-6.18-.07-.1-.86.06-1.19,0,0-.6-.01-1.19,0-1.79,3.9-1.5,8.96.1,12.8-.6,1.02-.19,1.67-.64,1.49-1.78-.57.05-1.24-.1-1.78,0,1.14-3.84.39-7.96.6-11.91.4.01.79-.01,1.19,0,3.24.08,9.32.5,12.21,0,.59-.1,1.23-.35,1.49-.9.56-1.19-1.14-.82-1.19-.88-.1-.14.03-1.32,0-1.79-.68-11.68.71-24.07,0-35.74-.05-.79.04-1.6,0-2.39-4.2.31-8.69-.92-12.51,1.19-.06-1.03-.56-1.88-.6-2.38-.13-1.63-1.51-10.85-1.19-11.32.08-.11,2.49-.43,1.19-1.78-.38-.4-9.6-.07-11.07-.03-.78.02-1.36.62-1.44.62-.4.01-.79,0-1.19,0v-1.19c0-3.96,0-7.95,0-11.92-12.78.47-26-.62-38.73,0-.4.02-.8-.03-1.19,0l-.6,12.51ZM172.15,122.57c-7.6.88-17.09-.39-25.02,0-.4.02-.8-.03-1.19,0v12.51h-12.21c-.11,0-1.49,1.38-1.49,1.49v12.21h-12.51c-.03.4.02.8,0,1.19-.2,4.14.15,8.36,0,12.51-4.56,0-9.15,0-13.71,0-.03.39.02.79,0,1.19-.19,3.92,0,7.98,0,11.91,0,.4,0,.79,0,1.19-4.33.02-8.8-.21-13.11,0-.4.02-.8-.03-1.19,0v12.51h-13.11v26.81h-12.81c-.06,0-.89.83-.89.89v39.62l-12.15-.03c-.72.1-.24.9-.36,1.22-.37,1.02-.55,1.47-.62,2.64-.97,15.83.77,32.66.03,48.6-.02,1.08.4,1.31,1.19,1.79,2.96,1.77,8.55-.14,11.91.6.38.08.84.54,1.19.6v26.22s13.11,0,13.11,0c0,.2,0,.4,0,.6.02,4.14-.2,8.38,0,12.51.02.4-.03.8,0,1.19,3.88-.12,7.79.15,11.67.03.79-.03,1.36-.62,1.44-.62.2,0,.4,0,.6,0,.17,4.34-.52,8.81.66,13.04l11.85.07c-.02,8.64.06,17.3-.05,25.96-.18,1.19,1.14.75,1.24.85.07.07-.27,1.03.39,1.2,2.18.58,9.76-.03,12.71-.01-.36,3.75.49,8.29,0,11.91,0,.07-.86.44-.59,1.19.99.03,1.99-.03,2.98,0,3.36.11,6.76-.08,10.13,0,0,.1.59.67.6,1.19.02,3.75-.18,7.58,0,11.32.02.4-.03.8,0,1.19h26.82c.47.47-.5,10.88-.03,12.71.35,1.37,2.27.4,2.41.4.4,0,.79,0,1.19,0,11.83.13,24.6.52,36.34,0,.4-.02.8.03,1.19,0-.05-.95.38-2.5-.59-2.98.41-2.23.48-6.15,0-8.34l2.64-1.83c17.19.07,34.39.04,51.57.04.15,4.15-.49,8.41.66,12.45,12.63,1.16,25.38.5,38.07.66.14,0,2.06.97,2.41-.4.47-1.84-.5-12.24-.03-12.71h26.81c.26-.75-.58-1.12-.59-1.19-.49-3.62.36-8.17,0-11.91.44.05,1.02-.58,1.19-.6,3.75-.36,8.06-.29,11.91-.6.39-.03.8.03,1.19,0,.24-.63-.59-1.12-.59-1.19-.26-3.73.19-7.58,0-11.32,2.74-.5,12.86,1.17,14-1.19.41-8.9.47-17.9.3-26.81,2.87-.11,5.79.14,8.67.03.84-.03,3.13-.74,3.25-.63.09.08-.07,2.45,1.19,1.19s-1.11-1.1-1.19-1.19c-.11-.12.6-2.41.63-3.25.11-2.88-.14-5.79-.03-8.67,2.04.05,12.93.3,13.74-.26,1.3-.9.18-11.8.56-14.04,3.74.36,8.3-.5,11.91,0,.07,0,.39.87,1.19.59.3-.88-.58-1.12-.59-1.19-.06-.36.02-.8,0-1.19,1.8.33,1.15-.91,1.19-2.06.25-7.62-.68-15.51.6-22.96,2.24-.43,11.78,1,12.43-.98-.06-17.52.66-35.12-.58-52.58-4.03-1.09-8.3-.59-12.45-.66-.4,0-.79,0-1.19,0-.48-13.17.64-26.8,0-39.91-.02-.4.03-.8,0-1.19-4.36.08-8.76-.12-13.11,0v-26.22c-4.16-.01-8.35.02-12.51,0v-13.11c-.4-.03-.8.02-1.19,0-4.37-.21-8.82.48-13.11-.6,0-.2,0-.4,0-.6,1.36-3.83.24-8.48.59-12.51-.39-.03-.79.02-1.19,0-3.8-.19-8.09-.1-11.91,0,.46-1.45-1.14-1.1-1.19-1.19-.32-.5.09-10.05,0-11.91-.02-.4.03-.8,0-1.19h-12.52c-.05-1.88.08-3.8,0-5.69-.04-1.15.61-2.39-1.19-2.06-.03-.95.14-2.12,0-2.98,2.5.46.42-2.98-.89-2.98h-11.62v-12.51c-.4-.03-.8.02-1.19,0-7.92-.39-18.17,1.02-25.62,0-.07,0-.44-.86-1.19-.59v13.11s-12.52,0-12.52,0c-.03.39.03.8,0,1.19-.01.2,0,.4,0,.6-2.08-.07-1.65-.37-1.79,1.46-.28,3.57.52,6.72.6,9.86.01.56-.6,1.12-.6,1.19h-79.23c-.14-.65-.58-1.12-.6-1.19-.72-3.85-.68-7.41-.6-11.32,0-.07.67-.43.57-.83-.49-1.91-10.9-.56-13.09-.96v-13.11c-.89-.4-1.58.57-1.78.59Z"/>
        <path class="cls-10" d="M349.09,325.13c4.36.02,8.75,0,13.11,0,.22,4.15-.57,8.48.59,12.51-.11,0-.66.58-1.19.6-4.16.09-8.35-.06-12.51,0,0-4.36-.02-8.75,0-13.11Z"/>
        <path class="cls-10" d="M349.09,338.23v12.51c-.08.03-1.17,1.11-1.19,1.19h-12.51c0-4.56-.02-9.14,0-13.7,4.56-.02,9.15.07,13.7,0Z"/>
        <path class="cls-10" d="M281.17,148.19l14.3,1.19v12.21c0,.65,1.45.85,2.05.92,7,.82,17.35-.02,24.75-.03,4.22,0,9.1.5,13.11-.6.06.09,1.65-.26,1.19,1.19-.3,0-.88.58-1.19.6-4.15.16-8.36-.12-12.51,0v11.91c4.23.14,8.26.35,12.51.6,4.49.26,9.11,1.04,13.7.6.16,4.35-.12,8.76,0,13.11,4.36,0,8.75-.02,13.11,0v-13.11c.4.02.8-.03,1.19,0v13.11c-.4,0-.79,0-1.19,0,0,3.42-.49,25.17.26,26.25.62.89,9.64.65,11.43.6,1.07-.03,1.91-.64,2.01-.64,4.36-.11,8.75.08,13.11,0,.03.39-.02.79,0,1.19h-13.11c0,13.29.02,26.62,0,39.91-.02,17.86,0,35.75,0,53.62-.53.01-1.08.59-1.19.6-8.53.16-17.09-.11-25.62,0,0,4.56.02,9.14,0,13.71-4.56-.02-9.14.01-13.71,0,0,4.36.02,8.75,0,13.11-4.36.02-8.75-.01-13.11,0v13.7c0,.66,11.87,0,13.11,0v12.51s.05.57-.6.6c-3.95.17-7.96-.12-11.91,0-1.01-.06-1.39-.21-1.19.89l.59.3v25.62c-.16-.05-.39.02-.6,0-8.3-.8-17.79.59-26.22,0v-12.52c-.39-.03-.79.03-1.19,0-.59-.03-1.21.07-1.79,0,.58-1.73-1.97-1.63-2.98-.6-1.12-.06-6.92-.27-7.15,0-1.79-.37-1.12.88-1.19,2.38-.38.57-.03,9.26.6,10.72-4.36.02-8.75-.01-13.11,0v-12.52c-.39-.03-.79.02-1.19,0-4.34-.21-8.76.16-13.11,0v12.51c-4.56,0-9.14,0-13.7,0-.09-.29.03-.81,0-1.19-.31-3.64.22-7.64,0-11.32-.74-.11-1.72.16-2.39,0-.23-.05-.62-.54-1.19-.6-.96-.09-2,.03-2.98,0-1.5-.05-3.31-.13-4.77,0-.39.03-.9-.09-1.19,0-1.64.49-1.69,3.8-.6,4.77-.13,1.73-.24,4.93,0,6.55-.72.73-.14,1.66-1.45,1.84-3.66.49-24.35-.81-25.36-.05-.03.39.02.79,0,1.19-.19,3.93.02,7.97,0,11.91,0,.4,0,.79,0,1.19-13.3.03-26.62-.04-39.91,0-.03-3.27.13-6.59,0-9.86-.05-1.15.61-2.39-1.19-2.06-.02-.39.06-.83,0-1.19-.07-.43.3-1.27-.36-1.2l-25.26.61c-.19-.07-.48.09-.6,0-.23-.17-.52-.25-.6-.6v-26.81c-.44-.44-10.56.37-12.51,0-.45-.08-.51-.15-.6-.6-.37-1.95.45-12.07,0-12.51-3.96-.01-7.95.03-11.92,0-.35,0-.85,0-1.19,0-.2,0-.4,0-.6,0-3.96,0-7.96-.11-11.91,0,.28-1.59-.38-1.22-1.79-1.19v-2.38c1.8.99,1.36-4.54,1.19-4.77-.07-.1-.86.06-1.19,0,.01-1.38-.1-2.8,0-4.17,0-.11.86-.61.6-1.19-4.42-1.2-9.16-.36-13.7-.6,0-.2,0-.4,0-.6,0-.99,0-1.99,0-2.98-.03-6.14.85-15.85,0-21.45-.06-.39.01-.89-.26-1.21-1.15-1.36-10.5-.18-12.85-.57.04-17.67-.04-35.36,0-53.02,0-.2,0-.4,0-.6,2.42-.42,11.27.83,12.51-.6.55-.63.56-1.82.62-2.64.8-10.84-.19-23.23-.03-34.29,0-.6,0-1.19,0-1.79,0-.07.59-.59.6-1.19h12.51c.03-4.36-.05-8.75,0-13.11,2.43-.46,11.71.74,13.14-.26.91-.64.65-10.94.56-12.85.15-.19.57-.44.6-.6h13.11s0-13.11,0-13.11c.2,0,.4,0,.6,0,8.73-.05,17.55.42,26.21-.6v-12.81c0-.06.83-.89.89-.89h12.21v-12.21c0-1.52,10.5-.78,12.26-.87.8-.04,1.32-.61,1.44-.62.2-.02.4.02.6,0,.73-.09,2.02-.21,2.38.6-.21.03-2.4.81-2.42.94l.04,12.17c4.56,0,9.15-.02,13.71,0,.4,0,.79,0,1.19,0s.79,0,1.19,0c25.6.07,51.25.08,76.85,0,.34,0,.83,0,1.19,0,4.36-.02,8.75.01,13.11,0,0-3.68,0-7.38.02-11.07,0-.77-.61-1.37-.61-1.45,0-.31.6-.92.6-1.19,0-.2,0-.4,0-.6ZM173.34,176.19v-12.21c0-.06-.83-.89-.89-.89h-11.32c-.06,0-.89.83-.89.89v11.32c0,.06.83.89.89.89h12.21ZM294.28,163.68c-4.21-1.11-8.29-.48-12.51,0v9.23c0,.39,1.11,3.28,1.49,3.28h10.13c.06,0,.89-.83.89-.89v-11.62ZM188.23,176.79c-.09,0-.6-.99-1.2-.33-.73.67-.95,11.14-.6,12.44.18.66,1.13.32,1.2.39.1.1-.33,1.42.85,1.24l79.61-.31c.86-.6.96-12.87-.03-13.77-.6-.67-1.11.33-1.2.33-25.97.41-52.67.41-78.64,0ZM281.77,230.4c-.76.33-1.76-.6-2.09-.6h-10.72c-2.77,0-.74,12.25-.89,14.3h13.7v-13.7ZM173.94,242.32c.05.2-.06.44,0,.6.14.35-.36,1.29.36,1.2l12.74-.02c.26-.75-.58-1.12-.59-1.19-.41-3.02.72-9.7,0-11.91-.2-.6-.26-.53-.86-.61-3.75-.48-8.39.39-12.25.01.07,4.13-.36,7.97.6,11.92ZM200.74,284.02c-1.84.03-3.93.66-6.29.62s-4.49-.94-6.82-.62c-1.01-.06-1.39-.21-1.19.89l.59.3c-.57,2.66,0,9.3,0,12.51v1.19c-.2,0-.41.03-.6,0-.18-.03-.62-.59-1.44-.62-1.52-.07-10.55-.19-10.96.17-.28.25-.03.97-.11,1.05s-.81-.17-1.05.11c-.69.8-.25,18.41-.14,21.06.05,1.15-.61,2.39,1.19,2.06,0,.4,0,.79,0,1.19,0,.06-.69.43-.58.83.51,1.96,10.97.67,13.09.36-.47,4.08.34,8.93,0,13.11.39.03.79-.02,1.19,0,4.13.2,8.37-.02,12.51,0-.3.71.57,1.56.6,1.79.29,2.43.26,7.67,0,10.13-.04.37-.83,1.07-.59,1.78l53.88.04c.7-.19.21-1.27.33-1.82.16-.72.05-.22,0-.6-.03-.19.02-.4,0-.6,0-3.57,0-7.16,0-10.72.2,0,.4,0,.6,0,4.14-.02,8.38.2,12.51,0,.4-.02.8.03,1.19,0,.02-4.56-.03-9.15,0-13.71h1.19c3.77,0,7.56,0,11.32,0,.93-.93-.53-22.37,0-26.22,0-.07.86-.44.59-1.19-4.47-.33-9.4.71-13.7-.6.4-3.51-.24-7.69,0-11.32,0-.07.83-.56.59-1.19-.39.01-.8-.04-1.19,0-5.39.55-8.11.1-13.11,0-.02-3.53.44-8.34.02-11.65-.06-.48-.03-.89-.61-.86h-52.43c-.59-.03-.55.39-.61.86-.42,3.3.03,8.13.02,11.65Z"/>
        <path class="cls-14" d="M389,257.21c.4,0,.79,0,1.19,0v1.19c-.94-.15-2.34,1.41-2.42,2.06l.09,48.91-1.84,1.45c-2.36-.05-4.79-.06-7.15,0-.08-.9-1.7-.9-1.79,0-.4.01-.79,0-1.19,0,0-17.86-.02-35.75,0-53.62,4.36.01,8.75-.02,13.11,0Z"/>
        <path class="cls-6" d="M389,217.3c.64,13.12-.48,26.74,0,39.91-4.36-.02-8.75.01-13.11,0,.02-13.3,0-26.62,0-39.92h13.11Z"/>
        <path class="cls-6" d="M254.36,109.47c-.01.4,0,.79,0,1.19-.01.6,0,1.19,0,1.79-.03,2.17-.04,4.38,0,6.55.02.95-.13,2.1,0,2.98h-39.92c-.11-3.75.16-7.57,0-11.32.42-1.37,1.54-1.15,2.65-1.23,12.08-.81,25.09.68,37.27.03Z"/>
        <path class="cls-12" d="M55.38,257.81c-.07,2.08-.37,1.65,1.46,1.79,1.26.1,2.97.1,4.23,0,1.83-.14,1.53.29,1.46-1.79h1.19v52.43c-.57.57-9.26-.88-10.72.59-.79-.47-1.21-.71-1.19-1.79.92-.25,2.27.82,2.39-.87,1.11-16.35-.84-33.89,0-50.36h1.19Z"/>
        <path class="cls-12" d="M215.64,27.85c12.73-.62,25.95.46,38.73,0,0,3.96,0,7.95,0,11.92h-38.73s0-11.91,0-11.91Z"/>
        <path class="cls-6" d="M281.17,57.04c.71,11.67-.68,24.06,0,35.74h-10.72v-35.74h10.72Z"/>
        <path class="cls-6" d="M162.02,432.36v-11.32h36.34v9.53c-11.21.57-23.14-.76-34.27,0-1.7.12-.62,1.47-.87,2.39-.4,0-.79,0-1.19,0v-.6Z"/>
        <path class="cls-6" d="M172.15,122.57c.96,3.31.73,7.55.6,11.05-.05,1.15.61,2.39-1.19,2.06h-24.43c0-4.36,0-8.75,0-13.11,7.93-.39,17.42.88,25.02,0Z"/>
        <path class="cls-3" d="M390.19,257.21c4.15.07,8.41-.43,12.45.66,1.23,17.46.51,35.06.58,52.58-.65,1.98-10.18.54-12.43.98.06-.55-.19-.51-.6-.6v-53.62ZM400.91,259.6h-8.34v50.04h8.34v-50.04Z"/>
        <path class="cls-6" d="M79.21,312.62c.85,5.6-.03,15.31,0,21.45-1.2-.39-1.05,1.01-1.62,1.17-.49.14-4.85.71-5.22.66-.24-.03-3.63-2.92-3.76-3.13-.62-1.05-.57-14.36,1.4-14.77.38-.08,4.34,3.19,4.26-1.4-.05-3.17-2.97-.63-4.23-1.03-1.41-.44-.1-3.19-2.75-2.35v23.83h11.91c0,.2,0,.4,0,.6s0,.4,0,.6h-13.11s0-26.21,0-26.21c5.04.8,8.43-.24,13.11.6Z"/>
        <path class="cls-3" d="M266.87,149.38c.12,4.07,1.6,8.94,0,13.11-25.6.08-51.25.07-76.85,0-.33-1.8.91-1.15,2.06-1.19,24.51-.97,49.63.73,74.2,0v-10.72h-77.45v11.91c-.4,0-.79,0-1.19,0,0-1.39,0-2.78,0-4.17,0-2.69-.32-5.46.6-8.04l-.92.15c-.57-.17.38-.75.31-1.05h79.23Z"/>
        <path class="cls-16" d="M254.36,40.96c.4,0,.79.01,1.19,0v1.19c-.45.08-.51.15-.6.6-.23,1.2-.12,10.81.26,11.36.57.82,9.42.75,11.06.56.21-.03.45.05.6,0,.66-.24.64-.57.6-1.19h.6c.04.5.53,1.35.6,2.38.78,13.05-.81,26.32.6,39.32.02.22-.5.85-.6,1.19-.4-.01-.79.01-1.19,0-.32,0-1.18-.57-2.05-.6-1.95-.06-8.84-.44-9.86.6s-.49,2.23-.6,3.57c-.12,1.63-.53,3.62-.6,4.77v-8.94c-4.36-.03-8.75.05-13.11,0-.04,2.13-.55,4.49-.6,5.96-1.27-1.41-.34-4.09-.6-5.96.4,0,.79,0,1.19,0,0-.4,0-.79,0-1.19h26.21v-37.83c0-1.51-11.54-1.05-13.11-.3-.06-.39.01-.89-.26-1.21-1.31-1.55-10.41-.09-12.85.02-.02-.12-.48-.37-.6-.6.08-.01.29-.8.62-.88,3.49-.79,9.01-.53,12.49.28v-11.91h-38.72c-.14,4.07.19,8.19.02,12.26-.05,1.29-.62,1.37-.62,1.45-.29-.33-.55-.75-.6-1.19-.48-4.33.44-7.99-.6-12.51-.11-.5.08-1.23,0-1.79.2,0,.4,0,.6,0,13.41.36,26.99.92,40.51.6Z"/>
        <path class="cls-1" d="M374.11,337.64c.57.04,1.3-.11,1.79,0,.39.09.58.15.6.6-.38,2.23.74,13.13-.56,14.04-.81.56-11.7.31-13.74.26-.4,0-.79.01-1.19,0-.11,0-.94-.6-2.01-.64-10.89-.36-10.25-.31-9.93,10.52.02.78.62,1.36.62,1.44,0,.4,0,.79,0,1.19.18,8.91.12,17.91-.3,26.81-1.15,2.36-11.27.69-14,1.19-.37,0-.55-.58-.6-.6v-27.4c.64-.03.55-.59.6-.6,4.15-.16,8.36.12,12.51,0,.5-.5-.57-10.75,0-12.51.03-.08,1.11-1.17,1.19-1.19,1.76-.56,12.01.51,12.51,0v-12.51c.53-.01,1.08-.59,1.19-.6,3.58-.09,7.79-.24,11.32,0ZM375.3,338.83h-11.62c-.06,0-.89.83-.89.89v10.72c0,.06.83.89.89.89h10.72c.06,0,.89-.83.89-.89v-11.62ZM335.98,390.66c.04.39-.05.8,0,1.19.39.05.8-.04,1.19,0,2.71.27,6.74.15,9.53,0,.39-.02.79.07,1.18,0,1.29-8.47.39-17.09.02-25.61-.06-.82-.88-.55-1.46-.62-1.52-.19-9.65-.21-10.2.58-.7,1-.52,21.8-.26,24.46Z"/>
        <path class="cls-1" d="M107.21,352.53c-.61,3.4.45,8.32,0,11.92h12.51c.08.45.15.51.6.59.71,3.89-1.05,24.37.26,26.25.88,1.27,10.14.21,12.25.56.07.34.36.42.6.6.35,2.11-.71,11.37.56,12.25,1.86,1.3,21.83-.44,25.65.26,0,.4,0,.79,0,1.19.4,0,.79,0,1.19,0,.04,4.16-.02,8.35,0,12.51,13.3,0,26.62-.02,39.92,0,.2,0,.4,0,.6,0,17.66.02,35.36-.02,53.02,0,.05.22.64.72.6,1.19h-.6c-17.18,0-34.38.03-51.57-.04l-2.64,1.83c-.31-1.39-5.69-1.71-7.42-1.81-10.04-.57-20.62.47-30.71.02l-1.19.6c.09,3.27-.13,6.58,0,9.86.05,1.15-.61,2.39,1.19,2.06v.6c-.14,0-2.06.98-2.41-.4-.47-1.84.5-12.24.03-12.71h-26.82c-.03-.39.02-.79,0-1.19,3.14-.37,26.35.74,26.81-.6.5-1.46-.03-9.5,0-11.91-5.48.02-20.91-1.05-25.02,0-.28.07-.78,1.62-1.79,1.19,0-.52-.6-1.09-.6-1.19,0-.88.62-2.05.62-3.25-.01-3.29-.04-6.58-.02-9.86-4.36-.02-8.75.04-13.11,0-2.95-.02-10.53.59-12.71.01-.66-.18-.32-1.13-.39-1.2.59.01,1.19-.02,1.79,0,2.83.09,6.14.18,8.94,0,.59-.04,1.2.05,1.79,0,.05-.39-.05-.8,0-1.19.29-2.57.44-23.46-.26-24.46-.61-.88-10.09-.95-11.06.04-2.16,2.21-.76,21.42-1.19,25.62-.1-.1-1.42.33-1.24-.85.11-8.65.03-17.31.05-25.96,0-.4,0-.79,0-1.19.01-3.39-.32-7.46,0-10.72.03-.32.48-.81.6-1.19.2,0,.4,0,.6,0l.6.6Z"/>
        <path class="cls-6" d="M362.19,176.79v13.11c-4.36-.02-8.75.01-13.11,0-.11-4.35.17-8.76,0-13.11,0-.2,0-.4,0-.6,4.28,1.08,8.74.38,13.11.6Z"/>
        <path class="cls-3" d="M294.28,419.85c-.02,3.57.28,7.59.04,11.08-.08,1.2-.1,1.46-1.23,2.03-12.69-.16-25.44.5-38.07-.66-1.14-4.04-.51-8.3-.66-12.45h.6c13.1,0,26.22,0,39.32,0ZM292.49,421.04h-35.74v9.53h36.34c-.35-2.69.48-6.41,0-8.94-.07-.39-.16-.59-.6-.6Z"/>
        <path class="cls-6" d="M119.72,393.04c4.36.03,8.75-.02,13.11,0-.02,3.28.01,6.57.02,9.86,0,1.2-.62,2.36-.62,3.25-3.36-.08-6.77.11-10.13,0,.35-2.18-1.01-.37-2.38-1.19.49-3.62-.36-8.17,0-11.91Z"/>
        <path class="cls-6" d="M132.83,149.98c.38,3.93-.52,8.71,0,12.51h-13.11c.15-4.15-.2-8.37,0-12.51h13.11Z"/>
        <path class="cls-6" d="M106.02,176.79c.02,3.67-.26,7.72,0,11.32.23.61-.59,1.13-.6,1.19h-11.91c-.01-.08-.57-.19-.62-1.45-.16-3.67.17-7.4.02-11.06,4.31-.21,8.78.02,13.11,0Z"/>
        <path class="cls-12" d="M363.38,189.89c4.16.02,8.35-.01,12.51,0v26.22c-.11,0-.95.61-2.02.64-1.79.05-10.8.29-11.43-.6-.75-1.08-.26-22.83-.26-26.25.4,0,.79,0,1.19,0ZM374.11,192.87h-9.53v20.55c0,1.59,7.95.39,9.53,1.49v-22.04Z"/>
        <path class="cls-6" d="M213.85,108.87h-2.98c-1.5,0-9.76.35-10.13,0-.01-.79.02-1.59,0-2.38,1.8.33,1.15-.91,1.19-2.06.06-1.59.05-3.23,0-4.82-.04-1.15.61-2.39-1.19-2.06v-1.79c2.52.52,11.14-.72,12.55.26,1.07.74.46,10.67.56,12.85Z"/>
        <path class="cls-3" d="M162.02,419.85c10.09.45,20.67-.59,30.71-.02,1.73.1,7.12.43,7.42,1.81.48,2.19.41,6.11,0,8.34-.13.69-1.12,1.77-.6,2.98-11.74.52-24.52.13-36.34,0,.25-.92-.82-2.27.87-2.39,11.13-.75,23.06.57,34.27,0v-9.53h-36.34v11.32c-1.8.33-1.15-.91-1.19-2.06-.13-3.28.09-6.59,0-9.86l1.19-.6Z"/>
        <path class="cls-6" d="M321.68,138.06c.14.86-.03,2.03,0,2.98.05,1.37.41,7.74-.89,7.74h-11.62v-11.62c0-1.21,9.64-1.15,11.02-.9s1.3.63,1.49,1.79Z"/>
        <path class="cls-11" d="M92.91,176.79c.14,3.67-.18,7.39-.02,11.06.05,1.26.61,1.37.62,1.45.39,2.32-1.12,1.68-1.19,1.79-1.85-.86-12.11-1.05-12.85-.02.49,8.48.49,17.16.34,25.63-.01.6-.59,1.12-.6,1.19-.98-.28-1.95-.54-2.98-.6-2.65-.15-6.65-.38-8.94.6-.18.08-.5-.09-.6,0-.61.59-.55.56-.63,1.43-1.08,11.1.06,25.76.03,37.29,0,.2,0,.4,0,.6s0,.4,0,.6h-13.7c.12-.32-.36-1.12.36-1.22l12.15.03v-39.62c0-.06.83-.89.89-.89h12.81v-26.81h13.11v-12.51c.4-.03.8.02,1.19,0Z"/>
        <path class="cls-3" d="M200.15,54.66l.6,1.19c-.51,3.34.13,8.28,0,11.91-.3,8.2-.9,16.64-.6,25.02v.6c.01.2-.01.4,0,.6s-.03.4,0,.6c.03.21-.06.48,0,.6-3.94-.76-7.91-.6-11.91-.6v-39.32c3-1.2,8.38-.54,11.91-.6ZM188.83,89.81c.01.59-.05,1.2,0,1.79s-.05,1.2,0,1.79c.39.05.8-.05,1.19,0,2.61.3,5.66-.22,8.34,0v-36.34c-2.76.1-5.58-.13-8.34,0-.4.02-.8-.03-1.19,0,.19,10.91-.25,21.87,0,32.77Z"/>
        <path class="cls-6" d="M200.74,42.74h11.32s0,11.91,0,11.91c-3.37,0-6.76,0-10.13,0-.07-2.88.1-5.78,0-8.67-.04-1.15.61-2.39-1.19-2.06.01-.4,0-.79,0-1.19Z"/>
        <path class="cls-3" d="M54.19,257.81c-.83,16.47,1.11,34.01,0,50.36-.12,1.7-1.47.62-2.39.87.75-15.93-.99-32.76-.03-48.6.07-1.17.25-1.61.62-2.64h1.79Z"/>
        <path class="cls-3" d="M268.66,55.85c3.82-2.11,8.31-.89,12.51-1.19.04.79-.05,1.6,0,2.39h-10.72v35.74h10.72c.03.47-.1,1.64,0,1.79-3.61,1.36-8.1.24-11.91.6-1.4-13,.19-26.27-.6-39.32Z"/>
        <path class="cls-11" d="M147.13,122.57c0,4.36,0,8.75,0,13.11,0,2.15.35,12.87-.26,13.74-.69.99-11.9.56-14.04.56h-13.11c.02-.4-.03-.8,0-1.19h12.51v-12.21c0-.11,1.38-1.49,1.49-1.49h12.21v-12.51c.4-.03.8.02,1.19,0ZM145.94,136.87h-12.51v11.02c0,.06.83.89.89.89h11.62v-11.91Z"/>
        <path class="cls-12" d="M348.49,163.09c.14,3.67-.18,7.39-.02,11.06.05,1.29.62,1.37.62,1.45,0,.2,0,.4,0,.6s0,.4,0,.6c-4.6.44-9.22-.33-13.7-.6v-12.51c.31-.01.89-.59,1.19-.6,3.83-.1,8.11-.19,11.91,0ZM337.77,174.4h8.64c1.2,0,1.25-7.5.63-8.38-.58-.83-7.35-.84-8.12-.3-.93.65-.51,6.94-1.15,8.68Z"/>
        <path class="cls-11" d="M307.98,122.57c.4.02.8-.03,1.19,0v12.51h11.62c1.31,0,3.4,3.44.89,2.98-.19-1.16-.11-1.54-1.49-1.79s-11.02-.32-11.02.9v11.62h11.62c1.3,0,.94-6.37.89-7.74,1.8-.33,1.15.91,1.19,2.06.07,1.89-.05,3.8,0,5.69h12.52c.03.39-.02.79,0,1.19-4.36,0-8.75,0-13.11,0-2.14,0-13.35.44-14.04-.56-.6-.87-.26-11.59-.26-13.74v-13.11Z"/>
        <path class="cls-12" d="M330.62,392.45c.34,0,1.12,0,1.19,0,.85.05,2.39-.19,2.98,0,.05.02.22.6.6.6.19,3.74-.26,7.59,0,11.32l-.6,1.19c-3.86.31-8.17.24-11.91.6.14-1.27.07-1.33-1.19-1.19.01-.2-.02-.4,0-.6s-.01-.4,0-.6l1.19-11.32c2.57.03,5.17-.05,7.74,0ZM333,394.23h-8.34l-1.19,9.53h8.64c.06,0,.89-.83.89-.89v-8.64Z"/>
        <path class="cls-3" d="M389,336.45c.02.39-.06.83,0,1.19l-.6.6c-3.62-.5-8.17.36-11.91,0-.01-.44-.21-.51-.6-.6v-25.62h.6c1.62.83.81.67.8,1.62-.14,7.8-.32,15.6-.2,23.4h10.72v-25.02c.36-.09,1.05-.8,1.19-.6.25,8.31-.32,16.71,0,25.02Z"/>
        <path class="cls-3" d="M307.98,122.57v13.11c-8.52.19-17.1-.25-25.62,0v-13.11c7.45,1.02,17.7-.39,25.62,0ZM307.38,123.77h-23.83v10.72h23.23v-9.23c0-.18.82-.85.6-1.49Z"/>
        <path class="cls-7" d="M66.11,257.81c-.04,17.67.03,35.36,0,53.02,2.35.39,11.71-.78,12.85.57.27.32.2.82.26,1.21-4.67-.84-8.06.2-13.11-.6-.35-.06-.82-.51-1.19-.6v-53.62h1.19Z"/>
        <path class="cls-3" d="M64.91,257.81v53.62c-3.36-.74-8.95,1.17-11.91-.6,1.46-1.47,10.16-.02,10.73-.59v-52.43s1.19,0,1.19,0Z"/>
        <path class="cls-3" d="M134.62,406.15c1.94,3.35,1.01,7.01,1.19,10.73.77.77,18.6-.42,21.78-.05,1.2.14.69,1.55,2.05,1.24-.45,1.33-23.67.22-26.81.6-.18-3.74.02-7.57,0-11.32,1.01.43,1.51-1.12,1.79-1.19Z"/>
        <path class="cls-12" d="M92.32,339.43c-.1,1.37.01,2.79,0,4.17-.01,1.59,0,3.18,0,4.77v2.98h-13.11c-.2-4.13.02-8.37,0-12.51,4.28.31,9.01-.71,13.11.6ZM90.53,340.02h-9.53v8.64c0,1.35,9.53,1.35,9.53,0v-8.64Z"/>
        <path class="cls-3" d="M106.02,163.68h13.11v11.02c0,1.66-11.32.6-13.11.89,0-3.93-.19-8,0-11.91ZM117.34,165.47c-9.52-.59-10.24-1.42-9.53,8.94h9.53v-8.94Z"/>
        <path class="cls-3" d="M186.45,136.87c-.08,3.91-.13,7.47.6,11.32-.57.04-1.11,1.18-1.19,1.19-2.63.52-6.67-.36-9.53,0-.36-.81-1.66-.69-2.38-.6,0-2.18-.01-4.37,0-6.55,0-1.19-.04-2.39,0-3.57.02-.6-.03-1.2,0-1.79h12.51ZM184.66,138.06c-3.47-.3-6.73.81-10.13,0-.29.22.6.76.6.89v8.64h9.53v-9.53Z"/>
        <path class="cls-1" d="M300.23,404.36v1.79c-1.59-.01-3.18.02-4.77,0,.02,3.54-.44,8.34-.02,11.65.06.48.03.89.61.86h25.62c0,.07.86.44.59,1.19h-26.81c-.47.47.5,10.88.03,12.71-.35,1.36-2.27.4-2.41.4,1.13-.57,1.15-.82,1.23-2.03.24-3.49-.06-7.51-.04-11.08.02-4.55-.15-9.16,0-13.7.4,0,.79,0,1.19,0,0-.4,0-.79,0-1.19,1.63-.03,3.12-.5,4.77-.6Z"/>
        <path class="cls-5" d="M213.85,108.87c.04.98.59,1.69.6,1.79.16,3.75-.12,7.57,0,11.32h39.92c0,.06.86.44.59,1.18l-40.72-.08c-2.03-.67-.47-10.25-.99-12.61-.11-.5-1.6-.4-1.18-1.6h1.79Z"/>
        <path class="cls-3" d="M215.64,27.85v11.92s38.72,0,38.72,0v1.19c-13.52.32-27.1-.23-40.51-.6l.6-12.51c.39-.03.79.02,1.19,0Z"/>
        <path class="cls-11" d="M119.72,162.49h13.11c0,.07.86.44.59,1.19h-13.11s0,13.11,0,13.11c-.2,0-.4,0-.6,0-4.56.03-9.14-.02-13.7,0,0-.4,0-.79,0-1.19,1.79-.3,13.11.77,13.11-.89v-11.02h-13.11c.02-.4-.03-.8,0-1.19,4.56,0,9.15,0,13.71,0Z"/>
        <path class="cls-3" d="M267.47,96.36c-.2,3.95.55,8.08-.6,11.91-5.29.93-7.7.1-12.51,0,.04-1.19-.07-2.39,0-3.57s.47-3.13.6-4.77l.6-2.38c.38-.04,1.19.79,1.19.89v9.23h9.53v-10.72c-3.41-.36-7.53.76-10.72-.6,1.03-1.04,7.91-.66,9.86-.6.88.03,1.73.59,2.05.6Z"/>
        <path class="cls-3" d="M335.38,149.98c.09,1.86-.32,11.41,0,11.91-4.01,1.1-8.89.59-13.11.6v-12.51c4.36,0,8.75,0,13.11,0ZM334.19,150.57c-2.16-.35-4.17.49-6.26.65-1.13.09-4.47-1.47-4.47,1.44v8.64c3.65-.25,7.09-1.28,10.72,0v-10.72Z"/>
        <path class="cls-3" d="M281.17,136.28v1.79c-1.61.25-10.72-.7-10.72.89v8.64h10.72c0,.2,0,.4,0,.6s0,.4,0,.6c-3.28.02-6.58,0-9.87-.03-1.63-.01-2.51,1.27-3.24-.56.8-3.77.5-7.52.6-11.32,0-.2-.01-.4,0-.6,4.15-.11,8.36.15,12.51,0Z"/>
        <path class="cls-1" d="M377.09,310.83c.6-.02,1.19.02,1.79,0,2.36-.06,4.78-.05,7.15,0,1.23.03,3.13-.22,4.17,0,.41.09.66.04.6.6-1.27,7.46-.34,15.35-.6,22.96-.04,1.15.61,2.39-1.19,2.06-.33-8.31.25-16.71,0-25.02-.14-.21-.83.5-1.19.6-3.6.92-7.7.92-11.32,0h-.6v-1.19c.4,0,.79.01,1.19,0Z"/>
        <path class="cls-7" d="M188.23,55.26v39.32h-1.19c.27-12.96-.18-25.98-.03-38.95.14-.73.92-.25,1.22-.37Z"/>
        <path class="cls-11" d="M172.15,122.57c.2-.02.89-.99,1.78-.59v13.11c2.18.4,12.59-.95,13.08.96.1.4-.57.76-.57.83h-12.51c-.02.59.02,1.19,0,1.79-1.08.82-2.07-2.85-2.38-2.98,1.8.33,1.15-.91,1.19-2.06.14-3.5.36-7.74-.6-11.05Z"/>
        <path class="cls-3" d="M94.11,351.94c3.95-.11,7.96,0,11.91,0-.11.38-.56.87-.6,1.19h-11.32v10.72h11.32c0,.4,0,.79,0,1.19l-11.85-.07c-1.18-4.23-.49-8.7-.66-13.04.4-.01.79.01,1.19,0Z"/>
        <path class="cls-5" d="M188.23,94.57c4,0,7.97-.17,11.91.6.14.25.08.59.6.6v1.79c0,2.97-.06,5.97,0,8.94.02.79-.01,1.59,0,2.38.36.35,8.63,0,10.13,0,.33,1.8-.91,1.15-2.06,1.19-1.28.05-7.57.2-7.96-.14-.28-.25-.03-.97-.11-1.05-.07-.07-1.03.27-1.2-.39-.47-1.79.47-11.66.01-12.12-2.18-.4-12.59.95-13.09-.96-.1-.4.57-.76.57-.83h1.19Z"/>
        <path class="cls-11" d="M268.06,148.19c.73,1.83,1.61.55,3.24.56,3.29.02,6.58.05,9.87.03,0,.27-.59.88-.6,1.19h-11.92c-.22,4.15.57,8.48-.59,12.51-.37,0-.86,0-1.19,0,1.6-4.16.12-9.03,0-13.11,0-.08.61-.63.6-1.19h.6Z"/>
        <path class="cls-11" d="M282.36,122.57v13.11c-.11,0-.65.58-1.19.6-4.15.15-8.36-.11-12.51,0,.03-.39-.04-.8,0-1.19h12.52s0-13.11,0-13.11c.75-.26,1.12.58,1.19.59Z"/>
        <path class="cls-3" d="M213.26,42.15c1.03,4.52.11,8.18.6,12.51h-1.79v-11.92s-11.32,0-11.32,0c0-.2,0-.4,0-.6h12.51Z"/>
        <path class="cls-3" d="M321.68,406.74c.36,3.74-.49,8.3,0,11.91h-25.62l24.43-.59c.23-3.2-.31-6.73-.03-9.88.07-.79.62-1.36.62-1.44h.6Z"/>
        <path class="cls-3" d="M362.19,352.53c-.11,2.87.14,5.79.03,8.67-.03.84-.74,3.13-.63,3.25-.12-.11-2.41.6-3.25.63-2.88.11-5.79-.14-8.67-.03,0-.4,0-.79,0-1.19h11.32s0-11.32,0-11.32c.4.01.79,0,1.19,0Z"/>
        <path class="cls-5" d="M213.26,40.36c.08.56-.11,1.28,0,1.79h-12.51c.03-.6-.03-1.2,0-1.79,4.16.09,8.36-.12,12.51,0Z"/>
        <path class="cls-5" d="M255.55,40.96c.08,0,.66-.6,1.44-.62,1.47-.05,10.69-.37,11.07.03,1.3,1.35-1.12,1.67-1.19,1.78-3.39.43-8.14-.6-11.32,0v-1.19Z"/>
        <path class="cls-3" d="M266.87,42.15c-.32.47,1.07,9.69,1.19,11.32h-.6l-.6,1.19c-.15.05-.39-.03-.6,0v-11.92s-11.32,0-11.32,0c.08-.45.15-.51.6-.6,3.17-.6,7.93.43,11.32,0Z"/>
        <path class="cls-5" d="M266.87,108.28c.54-.09,1.21.06,1.78,0,.18,1.14-.47,1.59-1.49,1.78-3.84.7-8.9-.9-12.8.6,0-.4-.01-.79,0-1.19s-.01-.8,0-1.19c4.81.1,7.22.93,12.51,0Z"/>
        <path class="cls-5" d="M268.66,136.87c-.09,3.8.21,7.55-.6,11.32h-.6c-.08-3.14-.88-6.29-.6-9.86.14-1.83-.29-1.53,1.79-1.46Z"/>
        <path class="cls-1" d="M79.21,337.64c4.55.24,9.29-.6,13.7.6.26.58-.59,1.08-.6,1.19-4.1-1.3-8.83-.28-13.11-.6,0-.2,0-.4,0-.6s0-.4,0-.6Z"/>
        <path class="cls-5" d="M281.17,94.57c.04.06,1.75-.31,1.19.88-.26.55-.9.8-1.49.9-2.89.5-8.96.09-12.21,0,.09-.35.62-.97.6-1.19,3.82-.36,8.31.76,11.91-.6Z"/>
        <path class="cls-11" d="M92.32,351.34v.6c-.08,0-.65.6-1.44.62-3.88.13-7.8-.14-11.67-.03-.03-.39.02-.79,0-1.19h13.11Z"/>
        <path class="cls-10" d="M348.49,163.09c.4.02.8-.03,1.19,0-.36,4.03.77,8.69-.59,12.51,0-.08-.57-.16-.62-1.45-.15-3.67.16-7.39.02-11.06Z"/>
        <path class="cls-11" d="M187.64,149.38c.07.3-.88.88-.31,1.05l.92-.15c-.93,2.57-.61,5.34-.6,8.04-1.8.33-1.15-.91-1.19-2.06-.08-2.28.46-4.76-.59-6.88.08-.02.62-1.15,1.19-1.19.01.07.45.54.6,1.19Z"/>
        <path class="cls-3" d="M200.74,43.94c1.8-.33,1.15.91,1.19,2.06.1,2.88-.07,5.79,0,8.67-.2,0-.4,0-.6,0s-.4,0-.6,0c.07-3.56-.1-7.16,0-10.72Z"/>
        <path class="cls-5" d="M254.36,112.45c.33.05,1.12-.1,1.19,0,.19.25.15,5.61.01,6.18-.16.69-.65.32-1.2.38-.04-2.17-.03-4.38,0-6.55Z"/>
        <path class="cls-1" d="M200.15,429.98c.97.48.54,2.03.59,2.98-.39.03-.79-.02-1.19,0-.52-1.21.47-2.29.6-2.98Z"/>
        <path class="cls-1" d="M321.68,404.96c1.27-.14,1.33-.07,1.19,1.19-.18.02-.75.65-1.19.6h-.6c.02-.2-.01-.4,0-.6.04-.52.59-1.05.6-1.19Z"/>
        <path class="cls-1" d="M119.72,404.96c1.37.82,2.74-.99,2.38,1.19-.99-.03-1.99.03-2.98,0-.27-.75.58-1.12.59-1.19Z"/>
        <path class="cls-8" d="M92.32,350.74c1.41-.02,2.07-.4,1.79,1.19-.4.01-.79-.01-1.19,0-.2,0-.4,0-.6,0v-1.19Z"/>
        <path class="cls-1" d="M361.6,364.45c.08.09,2.45-.07,1.19,1.19s-1.1-1.11-1.19-1.19Z"/>
        <path class="cls-1" d="M335.38,404.36c0,.07.83.56.59,1.19-.39.03-.8-.03-1.19,0l.6-1.19Z"/>
        <path class="cls-1" d="M389,337.64c.01.07.89.31.59,1.19-.8.28-1.12-.58-1.19-.59l.6-.6Z"/>
        <path class="cls-16" d="M201.34,54.66c.05.45-.57.99-.6,1.19l-.6-1.19c.2,0,.4,0,.6,0s.4,0,.6,0Z"/>
        <path class="cls-9" d="M213.85,310.83s.4.29.4.76c.02,4.3-.84,9.11-.4,13.54h27.4c-.49-3.8.46-8.02.48-11.64,0-.77-.48-1.54-.48-2.06h27.4c0,4.16.02,8.35,0,12.51,0,.2,0,.4,0,.6-.03,4.56.02,9.15,0,13.71-.39.03-.79-.02-1.19,0v-13.11c-.4-.03-.8.02-1.19,0-1.81-.09-11.02-.36-11.65.56-.6.86-.26,10.51-.26,12.55-17.86.06-35.76.06-53.62,0v-1.19c0-1.93.34-10.5-.26-11.36-.69-.99-9.17-.56-11.06-.56l11.25-1.25c.81-.95-.47-9.78-.45-11.58,0-.49.51-.79.51-.87h.6c3.54-.18,7.2.25,10.72,0,.63-.04,1.24-.29,1.79-.6Z"/>
        <path class="cls-5" d="M171.55,135.68c.31.13,1.3,3.79,2.38,2.98-.04,1.19,0,2.39,0,3.57-.33.05-1.12-.1-1.19,0-.2.27-.29,6.02.59,6.56-.12.01-.64.58-1.44.62-1.76.09-12.26-.65-12.26.87v12.21h-12.21c-.06,0-.89.83-.89.89v12.81c-8.66,1.01-17.48.54-26.21.6v-13.11s13.1,0,13.1,0c.26-.75-.58-1.12-.59-1.19-.52-3.8.38-8.58,0-12.51,2.14,0,13.35.43,14.04-.56.61-.87.26-11.59.26-13.74h24.43Z"/>
        <path class="cls-6" d="M188.83,162.49v-11.91h77.45v10.72c-24.56.72-49.69-.97-74.2,0-1.15.05-2.39-.61-2.06,1.19-.4,0-.79,0-1.19,0Z"/>
        <path class="cls-14" d="M234.11,378.74c-.76,1.76,3.57,1.95,2.98,0,.57.05.96.54,1.19.6.2,1.34-1.87,2.13-1.7,3.15.07.43.85.95.95,1.47.31,1.71.13,7.23,3.13,6.7.03.39-.09.9,0,1.19.25.84.65,1.05,1.49,1.19,3.81.64,8.36-.02,12.21,0v12.51c-.54-.36-1.2-.39-1.79-.6-1.43-.51-1.42-.5-2.98-.6-12.38-.78-28.96-.61-41.43-.02-2.4.11-4.86,1.07-7.42.62.02-3.94-.19-7.98,0-11.91,3.43-.53,26.26.75,27.29-.14.28-.25.03-.97.11-1.05.07-.07,1.03.27,1.2-.39.8-3.01-.6-9.28-.01-12.71,1.46-.13,3.27-.05,4.77,0Z"/>
        <path class="cls-5" d="M307.98,135.68c0,2.15-.34,12.87.26,13.74.69.99,11.89.56,14.04.56v12.51c-7.41,0-17.76.85-24.75.03-.6-.07-2.05-.27-2.05-.92v-12.21l-14.3-1.19c0-.2,0-.4,0-.6,0-3.17,0-6.36,0-9.53v-1.79c.54-.02,1.08-.59,1.19-.6,8.52-.25,17.1.19,25.62,0Z"/>
        <path class="cls-6" d="M253.77,271.51c.59-.03.55.39.61.86.42,3.31-.04,8.11-.02,11.65-17.65-.35-35.96-.31-53.62,0,.01-3.52-.44-8.35-.02-11.65.06-.48.03-.89.61-.86h52.43Z"/>
        <path class="cls-6" d="M253.77,340.02c.16,2.47-.21,5.05-.03,7.51.07.9.62,1.35.63,1.43.02.2-.03.4,0,.6v.6c-.2.01-.4-.02-.6,0-16.85,1.33-35.39-.99-52.43,0v-10.13h52.43Z"/>
        <path class="cls-14" d="M361.6,338.23v12.51c-.5.5-10.75-.57-12.51,0v-12.51c4.16-.06,8.35.09,12.51,0Z"/>
        <path class="cls-14" d="M347.89,351.94c-.56,1.76.51,12.01,0,12.51-4.15.11-8.36-.17-12.51,0v-12.51h12.51Z"/>
        <path class="cls-14" d="M349.09,325.13c-.02,4.36,0,8.75,0,13.11-4.56.07-9.14-.02-13.7,0,.02-4.36-.01-8.75,0-13.11,4.56.02,9.15-.01,13.71,0Z"/>
        <path class="cls-14" d="M374.7,311.43c.68.99.59,2.11.62,3.25.19,6.3.52,14.8.02,20.94-.1,1.2-.08,1.46-1.23,2.03-3.53-.24-7.74-.09-11.32,0-1.16-4.03-.38-8.36-.59-12.51-4.36,0-8.75.02-13.11,0,.02-4.56-.01-9.14,0-13.71,8.53-.11,17.09.16,25.62,0Z"/>
        <path class="cls-14" d="M335.38,338.23c-.02,4.56,0,9.14,0,13.7-1.23,0-13.11.66-13.11,0v-13.7c4.36-.01,8.75.02,13.11,0Z"/>
        <path class="cls-14" d="M200.74,406.15v12.51c-13.3-.02-26.62.01-39.92,0-.02-4.16.04-8.35,0-12.51,13.3-.04,26.62.03,39.91,0Z"/>
        <path class="cls-6" d="M76.23,217.3c-.05.33.1,1.12,0,1.19-.52.39-7.49-.28-8.94,0v-.6c2.29-.97,6.28-.74,8.94-.6Z"/>
        <path class="cls-6" d="M67.3,218.49c.11.37-.34,1.05.37,1.22,2.86.69,8.33-.56,11.54-.03-.16,11.07.83,23.46.03,34.29-.06.83-.07,2.01-.62,2.64h-10.72v-35.15c-1.05-.13-.57,1.35-.6,2.08-.43,10.3.41,20.71,0,31.01-.05,1.15.61,2.39-1.19,2.06.03-11.54-1.12-26.19-.03-37.29.08-.87.02-.84.63-1.43.12.23.55.44.6.6Z"/>
        <path class="cls-8" d="M199.55,297.72c.12,0,.65.57,1.19.6v1.19c0,3.37.02,6.76,0,10.13,0,.2,0,.39,0,.6,0,.4,0,.79,0,1.19,0,.08-.51.38-.51.87-.02,1.8,1.26,10.63.45,11.58l-11.25,1.25h-1.19c.07-.34.02-.74-.12-1.07-.33-.31-.74-.08-1.07-.13-.19-.03-.4.01-.6,0v-25.02c.19.03.4,0,.6,0,.4.02.8,0,1.19,0,.06-.39-.05-.81,0-1.19.02-.19-.01-.4,0-.6,3.75.59,7.56.37,11.32.6Z"/>
        <path class="cls-14" d="M120.32,365.04c1.95.37,12.07-.45,12.51,0v26.81c-2.12-.35-11.37.71-12.25-.56-1.31-1.88.45-22.36-.26-26.25Z"/>
        <path class="cls-14" d="M159.64,393.04c.06.36-.02.8,0,1.19.18,3.52,0,7.19,0,10.72-3.83-.7-23.79,1.04-25.65-.26-1.27-.88-.21-10.14-.56-12.25.12.09.41-.07.6,0,5.93,2.26,18.9-.45,25.62.6Z"/>
        <path class="cls-14" d="M334.79,365.04v2.38c-1.8-.33-1.15.91-1.19,2.06-.21,5.36-.18,11.37,0,16.73.04,1.15-.61,2.39,1.19,2.06v1.79c-4.03,1.16-8.36.38-12.51.6v-24.43l.6-1.19c3.95-.12,7.97.17,11.91,0Z"/>
        <path class="cls-12" d="M281.77,230.4v13.7h-13.7c.16-2.05-1.87-14.3.89-14.3h10.72c.32,0,1.32.92,2.09.6Z"/>
        <path class="cls-5" d="M105.43,189.3c-.05.83.59,1.12.6,1.19.09,1.91.35,12.21-.56,12.85-1.44,1-10.71-.2-13.14.26.02-1.86-.34-11.99,0-12.51.07-.11,1.58.53,1.19-1.79h11.91Z"/>
        <path class="cls-12" d="M267.47,284.02l.6,1.19c-.24,3.63.4,7.81,0,11.32-.02.18-.65.75-.6,1.19-4.35-.16-8.76.12-13.11,0-.01-4.56.03-9.15,0-13.71,4.99.1,7.71.55,13.11,0Z"/>
        <path class="cls-5" d="M119.72,176.79v13.11s-13.11,0-13.11,0c.13-1-.58-1.61-.6-1.79-.26-3.59.02-7.65,0-11.32,4.56-.02,9.14.03,13.7,0Z"/>
        <path class="cls-5" d="M173.34,176.19h-12.21c-.06,0-.89-.83-.89-.89v-11.32c0-.06.83-.89.89-.89h11.32c.06,0,.89.83.89.89v12.21Z"/>
        <path class="cls-5" d="M185.85,149.38c1.05,2.12.51,4.6.59,6.88.04,1.15-.61,2.39,1.19,2.06,0,1.39,0,2.78,0,4.17-4.56-.02-9.14.01-13.71,0l-.04-12.17c.03-.13,2.22-.91,2.42-.94,2.86-.36,6.9.52,9.53,0Z"/>
        <path class="cls-14" d="M289.51,378.74c.31.02,2,.47,2.98.6.57.07,1.2-.03,1.79,0v12.51c-4.16,0-8.35-.02-12.51,0-.62-1.47-.97-10.15-.6-10.72.04-.05.98.28,1.2-.43.18-.58-.14-1.8,0-1.95.23-.27,6.03-.06,7.15,0Z"/>
        <path class="cls-14" d="M267.47,379.34v12.51c-4.36,0-8.74,0-13.11,0v-12.51c4.34.16,8.76-.21,13.11,0Z"/>
        <path class="cls-5" d="M294.28,163.68v11.62c0,.06-.83.89-.89.89h-10.13c-.38,0-1.49-2.89-1.49-3.28v-9.23c4.22-.48,8.3-1.11,12.51,0Z"/>
        <path class="cls-5" d="M280.57,149.98c0,.08.62.68.61,1.45-.02,3.69-.02,7.39-.02,11.07-4.36.01-8.75-.03-13.11,0,1.16-4.03.38-8.36.59-12.51h11.92Z"/>
        <path class="cls-14" d="M107.81,351.94c3.96.03,7.95-.02,11.92,0,.44.44-.37,10.56,0,12.51h-12.51c.45-3.6-.6-8.51,0-11.91.02-.12.48-.37.6-.6Z"/>
        <path class="cls-5" d="M335.38,163.68v12.51c-4.26-.25-8.28-.45-12.51-.6v-11.91c4.15-.12,8.36.16,12.51,0Z"/>
        <path class="cls-12" d="M186.45,231c-1.48,1.53-.01,10.74-.59,11.32h-11.92c-.96-3.95-.53-7.79-.6-11.92,3.86.37,8.5-.49,12.25-.01.6.08.67,0,.86.61Z"/>
        <path class="cls-8" d="M267.47,379.34c.4.02.8-.03,1.19,0v12.52c4.36-.02,8.75.01,13.11,0s8.35,0,12.51,0v-12.51c.39.02.79-.03,1.19,0v12.52c8.43.59,17.92-.81,26.21,0v.6l-.6.6h-25.62c-.02.59.02,1.19,0,1.79-1.91.53-.75-1.64-1.52-1.83-2.16-.54-9.87.03-12.78.04-4.16.02-8.35-.01-12.51,0v13.11c-.39.03-.79-.02-1.19,0v-13.11c-4.36-.02-8.77.03-13.11,0-3.85-.02-8.4.64-12.21,0-.84-.14-1.24-.34-1.49-1.19,4.56,0,9.14,0,13.7,0,4.36,0,8.75,0,13.11,0v-12.51Z"/>
        <path class="cls-6" d="M266.28,325.13v11.92c-3.18.29-6.38-.24-9.54-.35-1.46-.05-1.68-.06-1.78,1.54-.2,0-.4,0-.6,0,0-2.04-.34-11.69.26-12.55.64-.91,9.85-.65,11.65-.56Z"/>
        <path class="cls-12" d="M92.32,191.09c-.34.53.02,10.65,0,12.51-.04,4.36.03,8.75,0,13.11h-12.51c.15-8.48.16-17.16-.34-25.64.74-1.03,10.99-.84,12.85.02ZM90.53,192.87h-8.64c-.06,0-.89.83-.89.89v19.96c1.85-.21,7.55,1.65,8.68.04.8-1.15.53-18.07.86-20.89Z"/>
        <path class="cls-7" d="M188.23,176.79c-.29,4.11.68,8.62-.6,12.51h79.24s0-12.51,0-12.51c.09,0,.6-.99,1.2-.33.99.9.89,13.17.03,13.77l-79.61.31c-1.19.18-.75-1.14-.85-1.24-.07-.07-1.03.27-1.2-.39-.35-1.31-.13-11.78.6-12.44.6-.67,1.11.33,1.2.33Z"/>
        <path class="cls-3" d="M266.87,176.79v12.51s-79.23,0-79.23,0c1.27-3.89.3-8.4.6-12.51,25.97.41,52.67.41,78.64,0ZM266.28,177.38h-77.45v11.32h77.45v-11.32Z"/>
        <path class="cls-1" d="M249.6,404.36v1.79c-14.85-.25-30.8-.54-45.6-.02-1.13.04-2.26-.06-3.25.62v-.6c0-.4,0-.79,0-1.19,2.56.45,5.03-.51,7.42-.62,12.47-.58,29.05-.76,41.43.02Z"/>
        <path class="cls-3" d="M281.17,298.32c-.52,3.84.93,25.29,0,26.22-3.77,0-7.56,0-11.32,0l-1.19-.6c.02-4.16,0-8.35,0-12.51v-13.11c4.15.15,8.36-.11,12.51,0ZM279.98,299.51h-10.13l-.6,23.23h10.72v-23.23Z"/>
        <path class="cls-12" d="M79.21,337.04h-11.91v-23.83c2.65-.84,1.34,1.91,2.75,2.35,1.26.4,4.18-2.14,4.23,1.03.08,4.58-3.88,1.32-4.26,1.4-1.97.41-2.02,13.72-1.4,14.77.12.21,3.52,3.1,3.76,3.13.36.05,4.72-.52,5.22-.66.57-.16.42-1.56,1.62-1.17,0,.99,0,1.99,0,2.98Z"/>
        <path class="cls-7" d="M254.36,338.23c0,3.57,0,7.16,0,10.72,0-.08-.56-.53-.63-1.43-.18-2.46.19-5.04.03-7.51h-53.02c-.03-.23-.9-1.08-.6-1.79.2,0,.4,0,.6,0,17.86.06,35.76.06,53.62,0Z"/>
        <path class="cls-7" d="M253.77,350.15c.2-.02.4.01.6,0-.12.55.37,1.63-.33,1.82l-53.88-.04c-.23-.71.55-1.42.59-1.78h53.02Z"/>
        <path class="cls-3" d="M186.45,298.91v25.02c-4.14-.23-8.37.17-12.51,0,0-.4,0-.79,0-1.19.13-7.73-.1-15.5,0-23.23.08-.08-.17-.81.11-1.05.42-.36,9.44-.24,10.96-.17.82.04,1.26.59,1.44.62ZM185.85,299.51h-10.43c-1.43,0-.29,3.94-.27,5.04.14,6.1-.39,12.1-.59,18.17,3.94,1.2,7.32-.11,11.29.03v-23.23Z"/>
        <path class="cls-7" d="M200.74,284.02c0,2.45.5,5.77-.6,7.74,0-.08-.53-.69-.62-1.44-.17-1.45.14-3.05.02-4.52h-11.32c-.15,3.75.2,7.57,0,11.32-.01.2.02.4,0,.6h-1.19c0-3.21-.57-9.85,0-12.51.02-.12.81-.62.6-1.19,2.33-.32,4.53.58,6.82.62s4.45-.59,6.29-.62Z"/>
        <path class="cls-8" d="M228.15,391.85c-.08.08.17.81-.11,1.05-1.03.89-23.86-.39-27.29.14.02-.4-.03-.8,0-1.19,1.01-.76,21.7.54,25.36.05,1.31-.18.73-1.11,1.45-1.84.04.26.9,1.07.6,1.79Z"/>
        <path class="cls-9" d="M238.28,379.34c.67.15,1.64-.12,2.39,0,.22,3.68-.31,7.69,0,11.32-3,.53-2.82-4.98-3.13-6.7-.1-.53-.87-1.05-.95-1.47-.18-1.02,1.9-1.81,1.7-3.15Z"/>
        <path class="cls-3" d="M188.83,325.13v11.92s11.91,0,11.91,0v1.19c-.2,0-.4,0-.6,0-4.14-.02-8.38.2-12.51,0,.14-3.87-.18-7.79-.02-11.66.05-1.24.6-1.37.62-1.45h.6Z"/>
        <path class="cls-8" d="M134.02,392.45l25.26-.61c.66-.07.29.77.36,1.2-6.72-1.05-19.69,1.66-25.62-.6Z"/>
        <path class="cls-3" d="M266.28,325.13c.4.02.8-.03,1.19,0v13.11c-4.13.2-8.37-.02-12.51,0,.1-1.6.32-1.59,1.78-1.54,3.16.12,6.36.64,9.54.35v-11.92Z"/>
        <path class="cls-12" d="M66.11,256.62c1.8.33,1.15-.91,1.19-2.06.41-10.31-.43-20.71,0-31.01.03-.73-.45-2.21.6-2.08v35.15h10.72c-1.24,1.42-10.09.18-12.51.6,0-.2,0-.4,0-.6Z"/>
        <path class="cls-7" d="M173.94,299.51c-.1,7.73.13,15.5,0,23.23-1.8.33-1.15-.91-1.19-2.06-.11-2.66-.55-20.27.14-21.06.25-.28.97-.03,1.05-.11Z"/>
        <path class="cls-7" d="M186.45,323.94c.2.01.4-.03.6,0,.05.45-.58,1.01-.6,1.19-2.13.31-12.58,1.6-13.09-.36-.11-.4.58-.77.58-.83,4.15.17,8.37-.23,12.51,0Z"/>
        <path class="cls-9" d="M334.79,390.06v2.38c-.59-.19-2.13.05-2.98,0l-.3-.59-.89.59c-2.57-.05-5.17.03-7.74,0,.02-.62-.22-.48-.6-.6v-1.19c4.15-.22,8.48.57,12.51-.6Z"/>
        <path class="cls-9" d="M229.34,378.74c-.59,3.43.81,9.7.01,12.71-.18.66-1.13.32-1.2.39.3-.72-.56-1.53-.6-1.79-.24-1.63-.13-4.83,0-6.55.08-1.01,1.19-3.12.6-4.77.29-.09.81.03,1.19,0Z"/>
        <path class="cls-9" d="M268.06,296.53c4.3,1.31,9.23.27,13.7.6.26.75-.58,1.12-.59,1.19-4.15-.11-8.36.15-12.51,0-.54-.02-1.08-.59-1.19-.6-.05-.45.58-1.01.6-1.19Z"/>
        <path class="cls-9" d="M375.89,310.83v26.81c-.49-.11-1.21.04-1.79,0,1.15-.57,1.13-.83,1.23-2.03.5-6.14.17-14.63-.02-20.94-.03-1.13.06-2.25-.62-3.25.11,0,.66-.58,1.19-.6Z"/>
        <path class="cls-12" d="M79.21,217.89c0,.6,0,1.19,0,1.79-3.21-.53-8.68.72-11.54.03-.71-.17-.27-.85-.37-1.22,1.45-.28,8.42.39,8.94,0,.1-.07-.06-.86,0-1.19,1.03.06,2,.31,2.98.6Z"/>
        <path class="cls-12" d="M67.3,218.49c-.04-.15-.47-.37-.6-.6.1-.09.41.08.6,0v.6Z"/>
        <path class="cls-9" d="M187.04,323.94c.33.04.75-.19,1.07.13.14.32.19.73.12,1.07-.02.08-.57.21-.62,1.45-.16,3.87.17,7.79.02,11.66-.4-.02-.8.03-1.19,0,.34-4.18-.47-9.03,0-13.11.02-.18.65-.75.6-1.19Z"/>
        <path class="cls-12" d="M186.45,242.91c0,.07.86.44.59,1.19l-12.74.02c-.72.08-.23-.85-.36-1.2h12.51Z"/>
        <path class="cls-3" d="M186.45,242.91h-12.51c-.06-.16.05-.4,0-.6h11.92c.58-.58-.89-9.79.59-11.32.72,2.22-.41,8.89,0,11.91Z"/>
        <path class="cls-8" d="M159.64,394.23c1.8-.33,1.15.91,1.19,2.06.13,3.27-.03,6.59,0,9.86-.4,0-.79,0-1.19,0,0-.4,0-.79,0-1.19,0-3.53.18-7.21,0-10.72Z"/>
        <path class="cls-1" d="M322.87,392.45l-1.19,11.32c.25-3.39,0-7.26,0-10.72v-1.19c.21.02.44-.05.6,0,.37.11.61-.03.6.6Z"/>
        <path class="cls-11" d="M173.94,142.23c-.01,2.18,0,4.37,0,6.55-.2.02-.4-.02-.6,0-.88-.54-.8-6.29-.59-6.56.07-.1.86.06,1.19,0Z"/>
        <path class="cls-12" d="M201.34,350.15h-.6c.26-2.46.29-7.69,0-10.13h.6v10.13Z"/>
        <path class="cls-8" d="M92.32,343.6c.33.05,1.12-.1,1.19,0,.17.23.61,5.76-1.19,4.77,0-1.59-.01-3.18,0-4.77Z"/>
        <path class="cls-8" d="M227.55,383.51c-1.09-.97-1.05-4.28.6-4.77.59,1.65-.52,3.76-.6,4.77Z"/>
        <path class="cls-8" d="M237.09,378.74c.6,1.95-3.74,1.76-2.98,0,.98.03,2.01-.09,2.98,0Z"/>
        <path class="cls-8" d="M289.51,378.74c1.01-1.04,3.56-1.14,2.98.6-.98-.12-2.67-.58-2.98-.6Z"/>
        <path class="cls-8" d="M282.36,378.74c-.13.15.19,1.37,0,1.95-.22.71-1.16.38-1.2.43.07-1.5-.6-2.76,1.19-2.38Z"/>
        <path class="cls-11" d="M106.62,189.89c-.02.16-.44.41-.6.6,0-.07-.65-.37-.6-1.19,0-.07.83-.58.6-1.19.01.18.73.79.6,1.79Z"/>
        <path class="cls-8" d="M322.87,365.04l-.6,1.19-.59-.3c-.21-1.1.17-.95,1.19-.89Z"/>
        <path class="cls-8" d="M107.81,351.94c-.11.23-.57.47-.6.6l-.6-.6c.35,0,.84,0,1.19,0Z"/>
        <path class="cls-9" d="M188.23,297.72c-.05.38.05.8,0,1.19-.39,0-.79.02-1.19,0v-1.19h1.19Z"/>
        <path class="cls-9" d="M267.47,284.02c.39-.04.8.01,1.19,0,.24.63-.59,1.12-.59,1.19l-.6-1.19Z"/>
        <path class="cls-9" d="M187.64,284.02c.22.57-.57,1.08-.6,1.19l-.59-.3c-.21-1.1.17-.95,1.19-.89Z"/>
        <path class="cls-7" d="M269.85,324.53h-1.19c0-.2,0-.4,0-.6l1.19.6Z"/>
        <path class="cls-9" d="M254.36,350.15v-.6c.05.37.16-.12,0,.6Z"/>
        <path class="cls-9" d="M390.19,258.4v52.43c-1.04-.22-2.94.03-4.17,0l1.84-1.45-.09-48.91c.08-.66,1.49-2.21,2.42-2.06Z"/>
        <path class="cls-9" d="M378.87,310.83c-.59.02-1.19-.02-1.79,0,.08-.9,1.7-.9,1.79,0Z"/>
        <path class="cls-16" d="M200.74,67.77c1.8,1.41,12.56.04,13.11.59,0,3.17,0,6.36,0,9.54-.33-.05-1.12.1-1.19,0-.5-.67.87-8.35-.89-8.35h-10.43v25.02h12.21c.11,0,1.49,1.38,1.49,1.49v12.21c8.33.08,16.69-.1,25.02,0,4.75.06,9.54-.1,14.3,0-.01.4.01.79,0,1.19-12.17.64-25.19-.85-37.27-.03-1.11.07-2.23-.14-2.65,1.23,0-.09-.55-.81-.6-1.79-.1-2.18.51-12.1-.56-12.85-1.41-.98-10.03.26-12.55-.26-.51,0-.46-.35-.6-.6-.06-.12.03-.38,0-.6l.58-.3-.58-.3c-.01-.2.01-.4,0-.6s0-.4,0-.6c-.31-8.39.3-16.82.6-25.02Z"/>
        <path class="cls-3" d="M62.53,257.81c.07,2.08.37,1.65-1.46,1.79-1.26.1-2.97.1-4.23,0-1.83-.14-1.53.29-1.46-1.79h7.15Z"/>
        <rect class="cls-6" x="392.57" y="259.6" width="8.34" height="50.04"/>
        <path class="cls-15" d="M240.66,54.66c.11.23.57.47.6.6.48,2.68-1.79,11.61.13,12.98s10.22.38,12.98.72c-.04,3.28.53,8.74,0,11.62-.09.5-.47,1.49-.89,1.49h-12.21c-.06,4.16.08,8.35,0,12.51,0,.4,0,.79,0,1.19-.4,0-.79,0-1.19,0-2.03-.04-3.88-.42-5.66-.48s-4.82,1.53-6.31-.36c-.97-1.22-.59-11.07-.54-13.46.1-4.42.1-8.72,0-13.11-.05-2.04-.4-12.76.56-13.45.51-.37,5.96.43,7.51.37,1.29-.05,3.74-.37,5.04-.62Z"/>
        <path class="cls-4" d="M254.36,56.45c1.57-.75,13.11-1.21,13.11.3v37.83h-26.21c.08-4.16-.06-8.35,0-12.51h12.21c.42,0,.8-.99.89-1.49.53-2.88-.04-8.34,0-11.62.04-3.56.5-9.26,0-12.51Z"/>
        <path class="cls-4" d="M214.45,55.85c0-.08.57-.15.62-1.45.16-4.07-.17-8.19-.02-12.26h38.72v11.91c-3.48-.81-9-1.07-12.49-.28-.33.07-.54.86-.62.88-1.3.24-3.74.57-5.04.62-1.55.06-7-.74-7.51-.37-.96.69-.6,11.41-.56,13.45-3.85-.27-8.13.37-11.91,0,.14-1.27.07-1.33-1.19-1.19-.32-3.31-.1-7.89,0-11.32Z"/>
        <path class="cls-2" d="M212.06,54.66h1.79c.05.44.31.86.6,1.19-.1,3.43-.32,8,0,11.32.04.39-.05.8,0,1.19.39.05.8-.04,1.19,0,3.78.37,8.07-.27,11.91,0,.1,4.38.1,8.68,0,13.11-3.52.72-10.51,1.32-13.7,0v-1.79c0-.6,0-1.19,0-1.79,0-3.17,0-6.36,0-9.54-.55-.55-11.31.82-13.11-.59.13-3.63-.51-8.57,0-11.91.03-.2.64-.74.6-1.19.2,0,.4,0,.6,0,3.37,0,6.76,0,10.13,0Z"/>
        <path class="cls-2" d="M254.36,56.45c.5,3.25.04,8.95,0,12.51-2.75-.34-11,.69-12.98-.72s.35-10.3-.13-12.98c2.44-.11,11.54-1.57,12.85-.02.27.32.2.82.26,1.21Z"/>
        <path class="cls-2" d="M241.26,95.77c4.36.05,8.75-.03,13.11,0v8.94c-.08,1.18.04,2.39,0,3.57-4.75-.1-9.54.06-14.3,0,.02-.59-.04-1.2,0-1.79,2.52.34.66-1.75.6-2.38-.07-.75-.02-1.62,0-2.38.04-1.47.56-3.83.6-5.96Z"/>
        <path class="cls-6" d="M254.96,42.74h11.32s0,11.91,0,11.91c-1.64.2-10.49.26-11.06-.56-.38-.54-.49-10.16-.26-11.36Z"/>
        <path class="cls-12" d="M255.55,96.36c3.19,1.36,7.31.24,10.72.6v10.72h-9.53v-9.23c0-.1-.8-.94-1.19-.89l-.6,2.38c.1-1.34-.46-2.5.6-3.57Z"/>
        <path class="cls-6" d="M266.87,54.66l.6-1.19c.05.62.06.95-.6,1.19Z"/>
        <path class="cls-6" d="M347.89,366.23l-1.19,25.62c-2.79.15-6.82.27-9.53,0,.14-1.27.07-1.33-1.19-1.19-.26-2.66-.44-23.46.26-24.46.55-.79,8.67-.77,10.2-.58.58.07,1.39-.2,1.46.62Z"/>
        <path class="cls-6" d="M375.3,338.83v11.62c0,.06-.83.89-.89.89h-10.72c-.06,0-.89-.83-.89-.89v-10.72c0-.06.83-.89.89-.89h11.62Z"/>
        <path class="cls-12" d="M361,352.53v11.32s-11.32,0-11.32,0c0-.08-.6-.66-.62-1.44-.33-10.83-.97-10.88,9.93-10.52,1.08.04,1.91.64,2.01.64Z"/>
        <path class="cls-3" d="M347.89,366.23c.38,8.52,1.27,17.14-.02,25.61-.39.07-.79-.01-1.18,0l1.19-25.62Z"/>
        <path class="cls-9" d="M334.79,367.43v20.85c-1.8.33-1.15-.91-1.19-2.06-.18-5.37-.21-11.38,0-16.73.05-1.15-.61-2.39,1.19-2.06Z"/>
        <path class="cls-3" d="M335.98,390.66c1.27-.14,1.33-.07,1.19,1.19-.39-.04-.8.05-1.19,0-.05-.39.04-.8,0-1.19Z"/>
        <path class="cls-14" d="M281.17,393.04c.42,2.99-1.14,10.72,1.45,12.55,1.52,1.08,9.15.51,11.66.55-.15,4.54.02,9.15,0,13.7-13.1,0-26.22,0-39.32,0,.05-.47-.55-.97-.6-1.19-.04-.18.02-.4,0-.6-.27-3.57.01-7.67,0-11.32,0-.2,0-.4,0-.6,4.35-.15,8.77.21,13.11,0,.4-.02.8.03,1.19,0v-13.11c4.16,0,8.35.02,12.51,0Z"/>
        <path class="cls-6" d="M249.6,406.15c.98.02,2-.08,2.98,0,.63.05,1.24.29,1.79.6.01,3.65-.27,7.75,0,11.32l-53.02.6c-.2,0-.4,0-.6,0v-11.91c.99-.68,2.11-.58,3.25-.62,14.8-.52,30.75-.23,45.6.02Z"/>
        <path class="cls-6" d="M159.64,406.15c-.03,2.41.5,10.45,0,11.91-1.36.31-.84-1.1-2.05-1.24-3.18-.38-21.01.82-21.78.05-.18-3.72.75-7.38-1.19-10.73,4.11-1.05,19.54.02,25.02,0Z"/>
        <path class="cls-3" d="M254.36,418.06c.02.2-.04.41,0,.6-17.66-.02-35.36.02-53.02,0l53.02-.6Z"/>
        <path class="cls-6" d="M162.02,419.85l-1.19.6,1.19-.6Z"/>
        <path class="cls-6" d="M119.13,390.66c-.87,0-1.53.34-1.79,1.19-2.8.18-6.11.09-8.94,0l-.6-25.62c.97-.99,10.45-.92,11.06-.04.7,1,.55,21.89.26,24.46Z"/>
        <path class="cls-12" d="M105.43,353.13c-.32,3.27.01,7.33,0,10.72h-11.32v-10.72h11.32Z"/>
        <path class="cls-3" d="M108.4,391.85c-.6-.02-1.19.01-1.79,0,.43-4.2-.97-23.41,1.19-25.62l.6,25.62Z"/>
        <path class="cls-3" d="M119.13,390.66c-.04.39.05.8,0,1.19-.59.05-1.2-.04-1.79,0,.26-.85.92-1.18,1.79-1.19Z"/>
        <path class="cls-6" d="M292.49,421.04l.6.6c.48,2.52-.35,6.24,0,8.94h-36.34v-9.53h35.74Z"/>
        <path class="cls-12" d="M293.09,421.64l-.6-.6c.44,0,.52.21.6.6Z"/>
        <path class="cls-6" d="M374.11,192.87v22.04c-1.58-1.1-9.53.1-9.53-1.49v-20.55h9.53Z"/>
        <path class="cls-3" d="M200.74,97.55c1.8-.33,1.15.91,1.19,2.06.05,1.59.06,3.23,0,4.82-.04,1.15.61,2.39-1.19,2.06-.06-2.97,0-5.97,0-8.94Z"/>
        <path class="cls-6" d="M190.02,57.04c2.76-.13,5.58.1,8.34,0v36.34c-2.68-.22-5.73.3-8.34,0,0-.87-.34-1.53-1.19-1.79-.05-.59.01-1.2,0-1.79,2.59-10.4.54-22.02,1.19-32.77Z"/>
        <path class="cls-7" d="M190.02,57.04c-.65,10.75,1.4,22.36-1.19,32.77-.25-10.9.19-21.86,0-32.77.39-.03.79.02,1.19,0Z"/>
        <path class="cls-7" d="M190.02,93.38c-.39-.04-.8.05-1.19,0-.05-.59.04-1.2,0-1.79.85.26,1.18.92,1.19,1.79Z"/>
        <path class="cls-7" d="M200.15,94.57c-.03-.19.01-.4,0-.6l.58.3-.58.3Z"/>
        <path class="cls-7" d="M200.15,93.38v-.6c0,.2-.01.4,0,.6Z"/>
        <path class="cls-3" d="M145.94,136.87v11.91h-11.62c-.06,0-.89-.83-.89-.89v-11.02h12.51ZM136.82,138.16c-.8.19-1.51,1.1-1.56,1.95-.03.6.61,6.64.8,6.93.73,1.04,6.58.61,8.11.28,1.03-.76-.06-1.85.03-2.93.12-1.44,1.22-3.81.28-5.17-.23-.33-7.13-1.19-7.66-1.06Z"/>
        <path class="cls-6" d="M337.77,174.4c.64-1.74.22-8.02,1.15-8.68.77-.54,7.54-.53,8.12.3.61.88.56,8.38-.63,8.38h-8.64Z"/>
        <path class="cls-14" d="M321.09,393.04h.6c0,3.46.25,7.33,0,10.72-.01.2.02.4,0,.6-7.1.29-14.37-.4-21.45,0-1.64.09-3.13.57-4.77.6,0-.6,0-1.19,0-1.79.02-2.77-.08-5.57,0-8.34.02-.6-.03-1.2,0-1.79h25.62Z"/>
        <path class="cls-6" d="M333,394.23v8.64c0,.06-.83.89-.89.89h-8.64l1.19-9.53h8.34Z"/>
        <path class="cls-9" d="M321.68,404.36c-.02.2.01.4,0,.6,0,.14-.56.68-.6,1.19-6.94-.04-13.91.05-20.85,0v-1.79c7.08-.4,14.35.29,21.45,0Z"/>
        <path class="cls-1" d="M331.81,392.45c-.07,0-.86,0-1.19,0l.89-.59.3.59Z"/>
        <path class="cls-6" d="M387.81,312.02v25.02h-10.72c-.12-7.8.07-15.6.2-23.4.02-.95.82-.79-.8-1.62,3.62.92,7.72.92,11.32,0Z"/>
        <path class="cls-6" d="M307.38,123.77c.22.64-.6,1.31-.6,1.49v9.23h-23.23v-10.72h23.83Z"/>
        <path class="cls-6" d="M90.53,340.02v8.64c0,1.35-9.53,1.35-9.53,0v-8.64h9.53Z"/>
        <path class="cls-6" d="M117.34,165.47v8.94h-9.53c-.71-10.36.02-9.52,9.53-8.94Z"/>
        <path class="cls-6" d="M184.66,138.06v9.53h-9.53v-8.64c0-.13-.89-.67-.6-.89,3.4.8,6.66-.31,10.13,0Z"/>
        <path class="cls-6" d="M300.23,406.15c6.94.05,13.91-.04,20.85,0-.01.2.02.4,0,.6,0,.08-.55.65-.62,1.44-.28,3.15.26,6.69.03,9.88l-24.43.59c-.59.03-.55-.39-.61-.86-.42-3.31.04-8.11.02-11.65,1.59.02,3.18-.01,4.77,0Z"/>
        <path class="cls-8" d="M295.47,403.17c0,.6,0,1.19,0,1.79,0,.4,0,.79,0,1.19-.4,0-.79,0-1.19,0,.05-1.6-.64-3.43,1.19-2.98Z"/>
        <path class="cls-6" d="M334.19,150.57v10.72c-3.63-1.28-7.07-.25-10.72,0v-8.64c0-2.91,3.33-1.35,4.47-1.44,2.09-.16,4.09-1,6.26-.65Z"/>
        <path class="cls-6" d="M281.17,138.06c0,3.17,0,6.36,0,9.53h-10.72v-8.64c0-1.6,9.11-.65,10.72-.89Z"/>
        <path class="cls-8" d="M254.36,284.02c.03,4.56-.02,9.15,0,13.71,4.35.11,8.76-.16,13.11,0,.11,0,.65.58,1.19.6v13.11h-14.3v-.6c0-.2,0-.4,0-.6,0-.22,0-.38,0-.6-.02-3.35.16-6.79,0-10.13-.02-.4.03-.8,0-1.19-3.97,0-7.95,0-11.92,0,.05-1.86-.98-2.14-1.19,0-.39,3.99.02,8.97,0,13.11,0,.51.48,1.28.48,2.06-.02,3.63-.97,7.84-.48,11.64h-27.4c-.44-4.42.42-9.24.4-13.54,0-.47-.4-.72-.4-.76-.04-3.54.19-7.2,0-10.72,0-.06.1.02,0-.6-.08-.52-.36-.79-.6-1.19-.33-.57-.58-3.3-1.19,0-3.55,0-7.18.16-10.72,0v-.6c-.05-.33-.52-.47-.6-.6-.17-.31-.08-.94-.6-1.19.14-1.18.06-2.93,0-4.17,1.1-1.98.59-5.3.6-7.74,17.66-.31,35.97-.35,53.62,0Z"/>
        <path class="cls-12" d="M200.74,337.04h-11.92s0-11.91,0-11.91h.6c1.89,0,10.37-.43,11.06.56.6.86.26,9.43.26,11.36Z"/>
        <path class="cls-6" d="M212.06,311.43c-3.52.25-7.19-.18-10.72,0l-.6-1.19v-.6c.02-3.37,0-6.76,0-10.13,2.02.33,10.19-.69,11.06.56.6.86.42,9.4.26,11.36Z"/>
        <path class="cls-6" d="M254.36,299.51c.16,3.34-.02,6.78,0,10.13v.6c-2.88.07-5.78-.1-8.67,0-1.15.04-2.39-.61-2.06,1.19h-1.79c1.97-3.66.97-7.93,1.19-11.92h11.32Z"/>
        <path class="cls-3" d="M212.06,298.32h1.19c.24.4.51.67.6,1.19v.6c.19,3.52-.04,7.18,0,10.72-.55.3-1.15.55-1.79.6.16-1.95.34-10.5-.26-11.36-.87-1.25-9.04-.23-11.06-.56v-1.19c.2.01.4,0,.6,0,3.54.16,7.18,0,10.72,0Z"/>
        <path class="cls-3" d="M242.45,298.32c3.97,0,7.95,0,11.92,0,.03.39-.02.79,0,1.19h-11.32c-.22,3.98.78,8.25-1.19,11.91h-.6c.02-4.14-.39-9.12,0-13.11h1.19Z"/>
        <path class="cls-3" d="M254.36,310.23c0,.2,0,.4,0,.6l-.6.6h-10.13c-.33-1.8.91-1.15,2.06-1.19,2.88-.1,5.79.07,8.67,0Z"/>
        <path class="cls-3" d="M201.34,311.43h-.6c0-.4,0-.79,0-1.19l.6,1.19Z"/>
        <polygon class="cls-6" points="254.36 311.43 253.77 311.43 254.36 310.83 254.36 311.43"/>
        <path class="cls-10" d="M254.36,393.04c4.33.02,8.75-.02,13.11,0v13.11c-4.34.21-8.76-.15-13.11,0,0-.2,0-.4,0-.6v-12.51Z"/>
        <path class="cls-9" d="M252.57,404.96v1.19c-.98-.08-1.99.02-2.98,0v-1.79c1.56.1,1.55.09,2.98.6Z"/>
        <path class="cls-1" d="M254.36,405.55c0,.2,0,.4,0,.6s0,.4,0,.6c-.55-.31-1.15-.55-1.79-.6v-1.19c.59.21,1.25.23,1.79.6Z"/>
        <path class="cls-3" d="M253.77,350.15h-52.43c17.03-.99,35.57,1.33,52.43,0Z"/>
        <path class="cls-3" d="M188.23,297.13c.2-3.74-.15-7.57,0-11.32h11.32c.12,1.47-.19,3.07-.02,4.52.09.75.62,1.36.62,1.44.06,1.24.14,2.99,0,4.17-.03.23-.9,1.08-.6,1.79-3.76-.23-7.57,0-11.32-.6ZM198.36,286.4h-9.53v9.53h9.53v-9.53Z"/>
        <path class="cls-7" d="M200.74,297.13l.6.6v.6c-.2,0-.4.01-.6,0-.55-.03-1.07-.59-1.19-.6-.3-.71.57-1.55.6-1.79.52.25.42.88.6,1.19Z"/>
        <path class="cls-9" d="M200.74,310.23c0-.2,0-.39,0-.6v.6Z"/>
        <path class="cls-10" d="M281.17,393.04c2.91-.01,10.62-.58,12.78-.04.77.19-.39,2.36,1.52,1.83-.08,2.77.02,5.57,0,8.34-1.83-.45-1.14,1.38-1.19,2.98-2.51-.04-10.14.53-11.66-.55-2.59-1.83-1.03-9.56-1.45-12.55Z"/>
        <polygon class="cls-9" points="321.68 393.04 321.09 393.04 321.68 392.45 321.68 393.04"/>
        <path class="cls-6" d="M90.53,192.87c-.32,2.82-.05,19.74-.86,20.89-1.12,1.61-6.82-.25-8.68-.04v-19.96c0-.06.83-.89.89-.89h8.64Z"/>
        <rect class="cls-6" x="188.83" y="177.38" width="77.45" height="11.32"/>
        <polygon class="cls-6" points="279.98 299.51 279.98 322.74 269.26 322.74 269.85 299.51 279.98 299.51"/>
        <path class="cls-6" d="M185.85,299.51v23.23c-3.97-.14-7.34,1.17-11.29-.03.21-6.06.73-12.07.59-18.17-.03-1.1-1.17-5.04.27-5.04h10.43Z"/>
        <path class="cls-4" d="M240.06,108.28c-8.33-.1-16.69.08-25.02,0v-12.21c0-.11-1.38-1.49-1.49-1.49h-12.21v-25.02h10.43c1.76,0,.4,7.68.89,8.35.07.1.86-.06,1.19,0,0,.6,0,1.19,0,1.79-1.19-.27-1.58.27-1.2,1.49.19.61.87.16,1.2.3,3.19,1.32,10.18.72,13.7,0-.05,2.39-.43,12.24.54,13.46,1.5,1.89,4.62.3,6.31.36,1.78.06,3.63.44,5.66.48.26,1.87-.67,4.54.6,5.96-.02.76-.07,1.63,0,2.38-.76.68-.54,1.51-.6,2.38-.04.59.02,1.19,0,1.79Z"/>
        <path class="cls-16" d="M214.45,67.17c1.27-.14,1.33-.07,1.19,1.19-.39-.04-.8.05-1.19,0-.05-.39.04-.8,0-1.19Z"/>
        <path class="cls-16" d="M213.85,79.68v1.79c-.33-.14-1.01.31-1.2-.3-.37-1.22.02-1.76,1.2-1.49Z"/>
        <path class="cls-16" d="M240.66,104.11c.06.63,1.93,2.72-.6,2.38.05-.87-.16-1.7.6-2.38Z"/>
        <path class="cls-6" d="M136.82,138.16c.53-.13,7.43.73,7.66,1.06.94,1.36-.15,3.73-.28,5.17-.09,1.09,1,2.17-.03,2.93-1.53.32-7.38.76-8.11-.28-.2-.29-.84-6.33-.8-6.93.04-.85.76-1.76,1.56-1.95Z"/>
        <path class="cls-9" d="M241.26,298.32c.21-2.14,1.24-1.86,1.19,0h-1.19Z"/>
        <path class="cls-9" d="M212.06,298.32c.61-3.3.86-.57,1.19,0h-1.19Z"/>
        <path class="cls-9" d="M201.34,297.72l-.6-.6c.07.13.55.27.6.6Z"/>
        <path class="cls-9" d="M213.85,300.11v-.6c.1.62,0,.54,0,.6Z"/>
        <path class="cls-9" d="M254.36,310.23v-.6c0,.22,0,.37,0,.6Z"/>
        <rect class="cls-6" x="188.83" y="286.4" width="9.53" height="9.53"/>
      </g>
    </g>
  </g>
</svg>