<?xml version="1.0" encoding="UTF-8"?>
<svg id="Layer_2" data-name="Layer 2" xmlns="http://www.w3.org/2000/svg" viewBox="0 0 11.1 10.57">
  <defs>
    <style>
      .cls-1 {
        fill: #fff;
      }
    </style>
  </defs>
  <g id="Layer_1-2" data-name="Layer 1">
    <g>
      <path class="cls-1" d="M10.57,6.34h-.53v-1.06h-.53v1.06h-1.59v.53h-.53v2.12h.53v.53h.53v.53h.53v-.53h1.05v-.53h.53v-.53h.53v-1.59h-.53v-.53ZM8.99,8.46h-.53v-1.06h.53v1.06ZM10.04,8.46h-.53v-1.06h.53v1.06Z"/>
      <path class="cls-1" d="M8.99,4.76h.53v.53h-.53v-.53Z"/>
      <path class="cls-1" d="M8.46,5.28h.53v.53h-.53v-.53Z"/>
      <path class="cls-1" d="M8.46,3.7h.53v1.06h-.53v-1.06Z"/>
      <path class="cls-1" d="M7.4,3.17h1.06v.53h-1.06v-.53Z"/>
      <path class="cls-1" d="M7.93,1.05h.53v.53h-.53v-.53Z"/>
      <path class="cls-1" d="M7.4,10.04h1.06v.53h-1.06v-.53Z"/>
      <path class="cls-1" d="M4.23,9.51h3.17v.53h-3.17v-.53Z"/>
      <path class="cls-1" d="M6.87,5.28h.53v.53h-.53v-.53Z"/>
      <path class="cls-1" d="M6.34,2.64h.53v.53h-.53v-.53Z"/>
      <path class="cls-1" d="M6.87,1.05h.53v-.53h-.53v-.53h-.53v.53h-.53v.53h.53v.53h.53v-.53Z"/>
      <path class="cls-1" d="M7.4,4.76v-1.06h-.53v.53h-.53v-.53h-.53v1.06s1.59,0,1.59,0Z"/>
      <path class="cls-1" d="M4.76,3.17h1.06v.53h-1.06v-.53Z"/>
      <path class="cls-1" d="M5.29,1.59h.53v.53h-.53v-.53Z"/>
      <path class="cls-1" d="M4.23,1.05h.53v1.59h-.53v-1.59Z"/>
      <path class="cls-1" d="M4.76,4.76v-1.06h-.53v.53h-1.06v.53s1.59,0,1.59,0Z"/>
      <path class="cls-1" d="M3.7,2.64h.53v.53h-.53v-.53Z"/>
      <path class="cls-1" d="M3.7.53h.53v.53h-.53v-.53Z"/>
      <path class="cls-1" d="M3.17,10.04h1.06v.53h-1.06v-.53Z"/>
      <path class="cls-1" d="M2.64,8.98h.53v1.06h-.53v-1.06Z"/>
      <path class="cls-1" d="M2.64,4.76h.53v.53h-.53v-.53Z"/>
      <path class="cls-1" d="M2.12,3.17h1.59v.53h-1.59v-.53Z"/>
      <path class="cls-1" d="M2.12,1.05h1.59v1.59h-1.59v-1.59Z"/>
      <path class="cls-1" d="M2.12,0h1.59v.53h-1.59v-.53Z"/>
      <path class="cls-1" d="M2.12,8.46h.53v.53h-.53v-.53Z"/>
      <path class="cls-1" d="M2.12,5.28h.53v.53h-.53v-.53Z"/>
      <path class="cls-1" d="M1.59,5.81h.53v2.64h-.53v-2.64Z"/>
      <path class="cls-1" d="M1.59,2.64h.53v.53h-.53v-.53Z"/>
      <path class="cls-1" d="M1.59.53h.53v.53h-.53v-.53Z"/>
      <path class="cls-1" d="M1.06,4.23h.53v.53h-.53v-.53Z"/>
      <path class="cls-1" d="M1.06,1.05h.53v1.59h-.53v-1.59Z"/>
      <path class="cls-1" d="M.53,4.76h.53v.53h-.53v-.53Z"/>
      <path class="cls-1" d="M.53,3.7h.53v.53h-.53v-.53Z"/>
      <path class="cls-1" d="M.53,0h.53v.53h-.53v-.53Z"/>
      <path class="cls-1" d="M0,4.23h.53v.53h-.53v-.53Z"/>
      <path class="cls-1" d="M0,2.11h.53v.53h-.53v-.53Z"/>
    </g>
  </g>
</svg>