<?xml version="1.0" encoding="UTF-8"?>
<svg id="Layer_2" data-name="Layer 2" xmlns="http://www.w3.org/2000/svg" viewBox="0 0 42 51">
  <defs>
    <style>
      .cls-1 {
        fill: #f4f4f4;
      }

      .cls-2 {
        fill: #bbc0c4;
      }

      .cls-3 {
        fill: #dfe2e5;
      }
    </style>
  </defs>
  <g id="Layer_1-2" data-name="Layer 1">
    <g>
      <rect x="39.01" y="1.83" width="1.04" height="1.04"/>
      <rect x="39.01" y="47.65" width="1.04" height="1.04"/>
      <g>
        <g>
          <path d="M41,1V0H1v1.07H0v48.94h.98v.99h40.02v-1h1V1h-1ZM37,5v41H5V5h32Z"/>
          <path class="cls-2" d="M1,1v49h40V1H1ZM38,47H4V4h34v43Z"/>
          <path class="cls-3" d="M38,16.56v20.16l3,.72v-20.21l-3-.67ZM1,27.78l3,.72V8.97l-3-.67v19.48Z"/>
          <g>
            <polygon class="cls-1" points="4 8.97 4 28.5 1 27.78 1 8.3 4 8.97"/>
            <polygon class="cls-1" points="41 17.23 41 37.44 38 36.72 38 16.56 41 17.23"/>
          </g>
        </g>
        <rect x="2.01" y="1.83" width="1.04" height="1.04"/>
        <rect x="2.01" y="47.65" width="1.04" height="1.04"/>
        <g>
          <rect x="4" y="4" width="5.91" height="5.91"/>
          <rect class="cls-2" x="3.78" y="3.78" width="3.67" height="3.67"/>
        </g>
        <g>
          <rect x="4" y="42.05" width="5.91" height="4.91"/>
          <rect class="cls-2" x="3.78" y="43.34" width="3.67" height="3.67"/>
        </g>
        <rect x="38.01" y="1.83" width="1.04" height="1.04"/>
        <rect x="38.01" y="47.65" width="1.04" height="1.04"/>
      </g>
      <g>
        <rect x="31.95" y="4" width="5.91" height="5.91" transform="translate(69.81 13.91) rotate(180)"/>
        <rect class="cls-2" x="34.41" y="3.78" width="3.67" height="3.67" transform="translate(72.49 11.23) rotate(180)"/>
      </g>
      <g>
        <rect x="32.98" y="42.15" width="4.81" height="4.81" transform="translate(70.78 89.11) rotate(180)"/>
        <rect class="cls-2" x="34.34" y="43.34" width="3.67" height="3.67" transform="translate(72.36 90.36) rotate(180)"/>
      </g>
    </g>
  </g>
</svg>